<svg class="img-fluid" id="outputsvg" xmlns="http://www.w3.org/2000/svg"
    style="transform: matrix(1.32068, 0, 0, 1.32068, -54.644, -38.8714); transform-origin: 50% 50% 0px; cursor: move; max-height: none; transition: none 0s ease 0s;"
    width="420" height="420" viewBox="0 0 4200 4200">
    <g id="l2w6bb8CzQsETVqGo0yxrGJ" fill="rgb(0,0,0)" style="transform: none;">
        <g>
            <path id="pioslKHt7"
                d="M1050 4100 c0 -5 -11 -12 -25 -16 -14 -3 -25 -10 -25 -15 0 -5 -9 -9 -21 -9 -19 0 -49 -21 -49 -35 0 -3 -9 -16 -20 -28 -11 -11 -23 -38 -26 -59 -4 -21 -10 -38 -15 -38 -5 0 -9 -18 -9 -40 0 -22 -4 -40 -10 -40 -5 0 -10 -15 -10 -34 0 -19 -7 -41 -15 -50 -8 -8 -15 -31 -15 -50 0 -20 -4 -36 -10 -36 -5 0 -10 -18 -10 -40 0 -22 -4 -40 -9 -40 -5 0 -11 -18 -15 -40 -3 -22 -11 -40 -16 -40 -6 0 -10 -20 -10 -45 0 -25 -4 -45 -10 -45 -5 0 -10 -16 -10 -35 0 -22 -6 -38 -15 -41 -10 -4 -15 -20 -15 -44 0 -22 -4 -42 -10 -45 -5 -3 -10 -22 -10 -41 0 -19 -4 -34 -10 -34 -5 0 -10 -12 -10 -27 0 -16 -7 -41 -15 -57 -8 -15 -15 -41 -15 -57 0 -16 -4 -29 -10 -29 -5 0 -10 -13 -10 -29 0 -16 -7 -42 -15 -57 -8 -16 -15 -39 -15 -51 0 -12 -4 -25 -10 -28 -5 -3 -10 -22 -10 -41 0 -19 -4 -34 -10 -34 -5 0 -10 -15 -10 -33 0 -18 -7 -42 -15 -53 -8 -10 -15 -34 -15 -51 0 -18 -4 -33 -10 -33 -5 0 -10 -18 -10 -39 0 -22 -4 -42 -9 -45 -5 -4 -12 -24 -16 -46 -4 -22 -11 -40 -16 -40 -5 0 -9 -18 -9 -40 0 -22 -4 -40 -10 -40 -5 0 -10 -15 -10 -34 0 -18 -7 -39 -15 -46 -9 -7 -15 -29 -15 -51 0 -22 -4 -39 -10 -39 -5 0 -10 -15 -10 -34 0 -19 -5 -38 -10 -41 -6 -3 -10 -19 -10 -34 0 -15 -7 -36 -15 -47 -8 -10 -15 -34 -15 -51 0 -18 -4 -33 -10 -33 -5 0 -10 -13 -10 -29 0 -16 -7 -42 -15 -57 -8 -16 -15 -41 -15 -56 0 -16 -4 -28 -10 -28 -5 0 -10 -15 -10 -34 0 -19 -5 -38 -10 -41 -6 -3 -10 -19 -10 -34 0 -15 -7 -36 -15 -47 -8 -10 -15 -34 -15 -51 0 -18 -4 -33 -10 -33 -5 0 -10 -18 -10 -39 0 -22 -4 -42 -9 -45 -5 -4 -12 -24 -16 -46 -4 -22 -11 -40 -16 -40 -5 0 -9 -18 -9 -40 0 -22 -4 -40 -10 -40 -5 0 -10 -15 -10 -34 0 -18 -7 -39 -15 -46 -17 -14 -22 -130 -5 -130 5 0 12 -11 16 -25 3 -14 10 -25 15 -25 5 0 9 -9 9 -21 0 -19 21 -49 35 -49 3 0 16 -9 28 -20 11 -11 38 -23 59 -26 21 -4 38 -10 38 -15 0 -5 18 -9 40 -9 22 0 40 -4 40 -10 0 -5 15 -10 34 -10 19 0 41 -7 50 -15 8 -8 28 -15 45 -15 16 0 33 -5 36 -10 3 -6 21 -10 40 -10 19 0 36 -4 39 -9 3 -4 24 -11 46 -15 22 -3 40 -11 40 -16 0 -6 20 -10 45 -10 25 0 45 -4 45 -10 0 -5 16 -10 35 -10 22 0 38 -6 41 -15 4 -10 20 -15 44 -15 22 0 42 -4 45 -10 3 -5 22 -10 41 -10 19 0 34 -4 34 -9 0 -4 19 -11 42 -14 24 -3 44 -11 46 -16 2 -6 21 -11 43 -11 21 0 39 -4 39 -10 0 -5 13 -10 29 -10 16 0 42 -7 57 -15 16 -8 41 -15 57 -15 15 0 27 -4 27 -10 0 -5 16 -10 35 -10 19 0 35 -4 35 -10 0 -5 15 -10 33 -10 18 0 42 -7 53 -15 10 -8 34 -15 52 -15 17 0 32 -4 32 -10 0 -5 18 -10 39 -10 22 0 43 -5 46 -10 3 -6 14 -10 23 -10 9 0 30 -7 46 -15 15 -8 44 -15 62 -15 19 0 34 -4 34 -10 0 -5 15 -10 34 -10 18 0 39 -7 46 -15 7 -8 27 -15 46 -15 18 0 36 -4 39 -10 3 -5 21 -10 40 -10 19 0 37 -4 40 -10 3 -5 16 -10 28 -10 12 0 35 -7 51 -15 15 -8 41 -15 57 -15 16 0 29 -4 29 -10 0 -5 13 -10 29 -10 16 0 42 -7 57 -15 16 -8 41 -15 57 -15 15 0 27 -4 27 -10 0 -5 15 -10 34 -10 19 0 38 -5 41 -10 3 -6 19 -10 34 -10 15 0 36 -7 47 -15 10 -8 34 -15 52 -15 17 0 32 -4 32 -10 0 -5 18 -10 39 -10 22 0 42 -4 45 -9 4 -5 24 -12 46 -16 22 -4 40 -11 40 -16 0 -5 18 -9 40 -9 22 0 40 -4 40 -10 0 -5 15 -10 34 -10 18 0 39 -7 46 -15 14 -17 130 -22 130 -5 0 5 11 12 25 16 14 3 25 10 25 15 0 5 9 9 21 9 19 0 49 21 49 35 0 3 8 15 19 26 10 11 21 38 25 60 3 21 11 39 16 39 6 0 10 18 10 40 0 22 5 40 10 40 6 0 10 15 10 33 0 18 7 42 15 53 8 10 15 34 15 52 0 17 5 32 10 32 6 0 10 18 10 40 0 22 5 40 10 40 6 0 10 13 10 29 0 16 7 36 15 45 8 8 15 32 15 55 0 23 5 41 10 41 6 0 10 15 10 33 0 17 7 41 15 51 8 11 15 32 15 48 0 15 5 28 10 28 6 0 10 18 10 40 0 22 5 40 10 40 6 0 10 15 10 33 0 18 7 42 15 53 8 10 15 34 15 52 0 17 5 32 10 32 6 0 10 15 10 34 0 19 4 37 9 40 5 4 12 24 16 46 4 22 11 42 16 46 5 3 9 21 9 40 0 19 5 34 10 34 6 0 10 17 10 39 0 22 6 44 15 51 8 7 15 28 15 46 0 19 5 34 10 34 6 0 10 18 10 39 0 22 4 43 10 46 6 3 10 16 10 29 0 12 7 31 15 42 8 10 15 36 15 57 0 20 5 37 10 37 6 0 10 15 10 34 0 18 7 39 15 46 9 7 15 29 15 51 0 22 5 39 10 39 6 0 10 15 10 34 0 19 5 38 10 41 6 3 10 19 10 34 0 15 7 36 15 47 8 10 15 34 15 52 0 17 5 32 10 32 6 0 10 15 10 34 0 19 4 37 9 41 6 3 13 26 17 50 3 25 10 45 15 45 5 0 9 15 9 34 0 19 5 38 10 41 6 3 10 21 10 39 0 19 7 39 15 46 8 7 15 28 15 46 0 19 5 34 10 34 6 0 10 18 10 39 0 22 4 42 9 45 4 3 11 24 15 46 3 22 11 40 16 40 6 0 10 18 10 40 0 22 5 40 10 40 6 0 10 15 10 34 0 18 7 39 15 46 17 14 22 130 5 130 -5 0 -12 11 -16 25 -3 14 -10 25 -15 25 -5 0 -9 9 -9 21 0 19 -21 49 -35 49 -3 0 -15 9 -27 19 -11 11 -38 23 -59 26 -22 4 -39 11 -39 16 0 5 -18 9 -40 9 -22 0 -40 5 -40 10 0 6 -15 10 -33 10 -18 0 -42 7 -53 15 -10 8 -34 15 -51 15 -18 0 -33 5 -33 10 0 6 -18 10 -40 10 -22 0 -40 5 -40 10 0 6 -13 10 -29 10 -16 0 -36 7 -45 15 -8 8 -32 15 -55 15 -23 0 -41 5 -41 10 0 6 -15 10 -32 10 -18 0 -42 7 -52 15 -11 8 -32 15 -47 15 -15 0 -31 5 -34 10 -3 6 -22 10 -41 10 -19 0 -34 5 -34 10 0 6 -15 10 -33 10 -18 0 -42 7 -53 15 -10 8 -34 15 -51 15 -18 0 -33 5 -33 10 0 6 -15 10 -34 10 -19 0 -37 4 -41 9 -3 6 -26 13 -50 17 -25 3 -45 10 -45 15 0 5 -16 9 -35 9 -19 0 -35 5 -35 10 0 6 -15 10 -33 10 -18 0 -42 7 -53 15 -10 8 -34 15 -51 15 -18 0 -33 5 -33 10 0 6 -18 10 -39 10 -22 0 -43 5 -46 10 -3 6 -16 10 -29 10 -12 0 -31 7 -42 15 -10 8 -36 15 -56 15 -21 0 -38 5 -38 10 0 6 -15 10 -34 10 -18 0 -39 7 -46 15 -7 9 -29 15 -51 15 -22 0 -39 5 -39 10 0 6 -15 10 -34 10 -19 0 -38 5 -41 10 -3 6 -19 10 -34 10 -15 0 -36 7 -47 15 -10 8 -34 15 -51 15 -18 0 -33 5 -33 10 0 6 -18 10 -40 10 -22 0 -40 4 -40 9 0 6 -20 13 -45 17 -25 3 -45 10 -45 15 0 5 -15 9 -34 9 -19 0 -38 5 -41 10 -3 6 -21 10 -40 10 -18 0 -40 7 -49 15 -8 8 -28 15 -45 15 -17 0 -31 5 -31 10 0 6 -18 10 -39 10 -22 0 -42 4 -45 9 -3 4 -24 11 -46 15 -22 3 -40 11 -40 16 0 6 -18 10 -40 10 -22 0 -40 5 -40 10 0 6 -15 10 -34 10 -18 0 -39 7 -46 15 -14 17 -130 22 -130 5z">
            </path>
        </g>
    </g>
    <g id="l3AfD5nK4vTdtK4b0Aplwbr" fill="rgb(8,8,8)" style="transform: none;">
        <g>
            <path id="p4Cy44qCw"
                d="M1050 4100 c0 -5 -11 -12 -25 -16 -14 -3 -25 -10 -25 -15 0 -5 -9 -9 -21 -9 -19 0 -49 -21 -49 -35 0 -3 -9 -16 -20 -28 -11 -11 -23 -38 -26 -59 -4 -21 -10 -38 -15 -38 -5 0 -9 -18 -9 -40 0 -22 -4 -40 -10 -40 -5 0 -10 -15 -10 -34 0 -19 -7 -41 -15 -50 -8 -8 -15 -31 -15 -50 0 -20 -4 -36 -10 -36 -5 0 -10 -18 -10 -39 0 -22 -4 -41 -9 -43 -5 -1 -12 -22 -16 -45 -6 -39 -5 -42 15 -38 41 8 65 17 82 32 9 8 42 21 75 29 32 9 67 21 78 28 11 7 34 16 50 20 17 4 46 15 65 24 28 13 64 17 175 17 150 -1 216 -12 293 -51 26 -13 53 -24 59 -24 7 0 41 -9 75 -19 35 -10 108 -29 163 -41 55 -13 113 -31 130 -40 39 -22 149 -54 255 -75 98 -20 138 -33 161 -52 9 -7 41 -18 73 -24 31 -5 75 -17 98 -25 22 -8 53 -14 68 -14 36 0 149 -38 167 -56 8 -8 25 -14 39 -14 13 0 52 -9 86 -19 35 -10 108 -29 163 -41 55 -12 116 -30 135 -40 19 -10 64 -28 100 -41 62 -21 133 -66 193 -123 15 -14 32 -26 37 -26 4 0 18 -21 30 -47 12 -27 27 -59 35 -73 18 -35 36 -161 29 -205 -3 -20 -16 -59 -30 -88 -13 -29 -26 -68 -30 -87 -8 -53 -44 -202 -54 -225 -5 -11 -14 -38 -20 -60 -6 -22 -16 -49 -21 -60 -13 -29 -60 -193 -69 -240 -10 -56 -37 -157 -67 -245 -24 -75 -108 -250 -124 -260 -10 -7 -41 -62 -95 -167 -20 -40 -40 -73 -45 -73 -5 0 -9 -7 -9 -15 0 -8 -9 -24 -20 -35 -11 -11 -20 -23 -20 -27 0 -17 -56 -63 -76 -63 -12 0 -29 -6 -36 -13 -7 -7 -54 -23 -104 -36 -91 -23 -173 -23 -216 0 -9 5 -27 9 -41 9 -13 0 -27 3 -31 7 -8 8 -14 10 -87 23 -31 5 -69 17 -85 25 -16 8 -37 15 -46 15 -10 0 -18 4 -18 9 0 5 -15 13 -32 17 -41 10 -40 9 -58 17 -32 12 -127 35 -175 42 -27 4 -55 11 -61 16 -5 4 -38 15 -73 23 -34 8 -68 19 -74 24 -7 6 -48 18 -92 27 -177 38 -202 44 -257 63 -31 11 -67 26 -80 33 -27 15 -27 15 -93 27 -28 4 -69 18 -90 29 -22 12 -60 26 -85 33 -25 7 -52 18 -60 25 -13 11 -133 35 -192 38 -10 1 -18 5 -18 8 0 4 -13 7 -28 7 -37 -1 -130 21 -138 33 -3 5 -13 9 -23 9 -10 0 -26 10 -37 21 -10 12 -29 25 -42 30 -13 5 -21 13 -17 18 3 6 -1 14 -10 18 -15 9 -55 105 -55 133 0 21 -23 70 -32 70 -5 0 -8 11 -8 25 0 15 -7 39 -15 55 -9 17 -13 30 -9 30 4 0 1 7 -6 15 -8 9 -10 33 -5 72 3 34 1 79 -6 108 -6 28 -13 68 -15 90 -2 22 -6 66 -9 98 -7 83 -45 130 -45 57 0 -15 -7 -33 -15 -40 -9 -7 -15 -29 -15 -51 0 -22 -4 -39 -10 -39 -5 0 -10 -15 -10 -34 0 -19 -5 -38 -10 -41 -6 -3 -10 -19 -10 -34 0 -15 -7 -36 -15 -47 -8 -10 -15 -34 -15 -51 0 -18 -4 -33 -10 -33 -5 0 -10 -13 -10 -29 0 -16 -7 -42 -15 -57 -8 -16 -15 -41 -15 -56 0 -16 -4 -28 -10 -28 -5 0 -10 -15 -10 -34 0 -19 -5 -38 -10 -41 -6 -3 -10 -19 -10 -34 0 -15 -7 -36 -15 -47 -8 -10 -15 -34 -15 -51 0 -18 -4 -33 -10 -33 -5 0 -10 -18 -10 -39 0 -22 -4 -42 -9 -45 -5 -4 -12 -24 -16 -46 -4 -22 -11 -40 -16 -40 -5 0 -9 -18 -9 -40 0 -22 -4 -40 -10 -40 -5 0 -10 -15 -10 -34 0 -18 -7 -39 -15 -46 -17 -14 -22 -130 -5 -130 5 0 12 -11 16 -25 3 -14 10 -25 15 -25 5 0 9 -9 9 -21 0 -19 21 -49 35 -49 3 0 16 -9 28 -20 11 -11 38 -23 59 -26 21 -4 38 -10 38 -15 0 -5 18 -9 40 -9 22 0 40 -4 40 -10 0 -5 15 -10 34 -10 19 0 41 -7 50 -15 8 -8 28 -15 45 -15 16 0 33 -5 36 -10 3 -6 21 -10 40 -10 19 0 36 -4 39 -9 3 -4 24 -11 46 -15 22 -3 40 -11 40 -16 0 -6 20 -10 45 -10 25 0 45 -4 45 -10 0 -5 16 -10 35 -10 22 0 38 -6 41 -15 4 -10 20 -15 44 -15 22 0 42 -4 45 -10 3 -5 22 -10 41 -10 19 0 34 -4 34 -9 0 -4 19 -11 42 -14 24 -3 44 -11 46 -16 2 -6 21 -11 43 -11 21 0 39 -4 39 -10 0 -5 13 -10 29 -10 16 0 42 -7 57 -15 16 -8 41 -15 57 -15 15 0 27 -4 27 -10 0 -5 16 -10 35 -10 19 0 35 -4 35 -10 0 -5 15 -10 33 -10 18 0 42 -7 53 -15 10 -8 34 -15 52 -15 17 0 32 -4 32 -10 0 -5 18 -10 39 -10 22 0 43 -5 46 -10 3 -6 14 -10 23 -10 9 0 30 -7 46 -15 15 -8 44 -15 62 -15 19 0 34 -4 34 -10 0 -5 15 -10 34 -10 18 0 39 -7 46 -15 7 -8 27 -15 46 -15 18 0 36 -4 39 -10 3 -5 21 -10 40 -10 19 0 37 -4 40 -10 3 -5 16 -10 28 -10 12 0 35 -7 51 -15 15 -8 41 -15 57 -15 16 0 29 -4 29 -10 0 -5 13 -10 29 -10 16 0 42 -7 57 -15 16 -8 41 -15 57 -15 15 0 27 -4 27 -10 0 -5 15 -10 34 -10 19 0 38 -5 41 -10 3 -6 19 -10 34 -10 15 0 36 -7 47 -15 10 -8 34 -15 52 -15 17 0 32 -4 32 -10 0 -5 18 -10 39 -10 22 0 42 -4 45 -9 4 -5 24 -12 46 -16 22 -4 40 -11 40 -16 0 -5 18 -9 40 -9 22 0 40 -4 40 -10 0 -5 15 -10 34 -10 18 0 39 -7 46 -15 14 -17 130 -22 130 -5 0 5 11 12 25 16 14 3 25 10 25 15 0 5 9 9 21 9 19 0 49 21 49 35 0 3 8 15 19 26 10 11 21 38 25 60 3 21 11 39 16 39 6 0 10 18 10 40 0 22 5 40 10 40 6 0 10 15 10 33 0 18 7 42 15 53 8 10 15 34 15 52 0 17 5 32 10 32 6 0 10 18 10 40 0 22 5 40 10 40 6 0 10 13 10 29 0 16 7 36 15 45 8 8 15 32 15 55 0 23 5 41 10 41 6 0 10 15 10 33 0 17 7 41 15 51 8 11 15 32 15 48 0 15 5 28 10 28 6 0 10 18 10 40 0 22 5 40 10 40 6 0 10 15 10 33 0 18 7 42 15 53 8 10 15 34 15 52 0 17 5 32 10 32 6 0 10 15 10 34 0 19 4 37 9 40 5 4 12 24 16 46 4 22 11 42 16 46 5 3 9 21 9 40 0 19 5 34 10 34 6 0 10 17 10 39 0 22 6 44 15 51 8 7 15 28 15 46 0 19 5 34 10 34 6 0 10 18 10 39 0 22 4 43 10 46 6 3 10 16 10 29 0 12 7 31 15 42 8 10 15 36 15 57 0 20 5 37 10 37 6 0 10 15 10 34 0 18 7 39 15 46 9 7 15 29 15 51 0 22 5 39 10 39 6 0 10 15 10 34 0 19 5 38 10 41 6 3 10 19 10 34 0 15 7 36 15 47 8 10 15 34 15 52 0 17 5 32 10 32 6 0 10 15 10 34 0 19 4 37 9 41 6 3 13 26 17 50 3 25 10 45 15 45 5 0 9 15 9 34 0 19 5 38 10 41 6 3 10 21 10 39 0 19 7 39 15 46 8 7 15 28 15 46 0 19 5 34 10 34 6 0 10 18 10 39 0 22 4 42 9 45 4 3 11 24 15 46 3 22 11 40 16 40 6 0 10 18 10 40 0 22 5 40 10 40 6 0 10 15 10 34 0 18 7 39 15 46 17 14 22 130 5 130 -5 0 -12 11 -16 25 -3 14 -10 25 -15 25 -5 0 -9 9 -9 21 0 19 -21 49 -35 49 -3 0 -15 9 -27 19 -11 11 -38 23 -59 26 -22 4 -39 11 -39 16 0 5 -18 9 -40 9 -22 0 -40 5 -40 10 0 6 -15 10 -33 10 -18 0 -42 7 -53 15 -10 8 -34 15 -51 15 -18 0 -33 5 -33 10 0 6 -18 10 -40 10 -22 0 -40 5 -40 10 0 6 -13 10 -29 10 -16 0 -36 7 -45 15 -8 8 -32 15 -55 15 -23 0 -41 5 -41 10 0 6 -15 10 -32 10 -18 0 -42 7 -52 15 -11 8 -32 15 -47 15 -15 0 -31 5 -34 10 -3 6 -22 10 -41 10 -19 0 -34 5 -34 10 0 6 -15 10 -33 10 -18 0 -42 7 -53 15 -10 8 -34 15 -51 15 -18 0 -33 5 -33 10 0 6 -15 10 -34 10 -19 0 -37 4 -41 9 -3 6 -26 13 -50 17 -25 3 -45 10 -45 15 0 5 -16 9 -35 9 -19 0 -35 5 -35 10 0 6 -15 10 -33 10 -18 0 -42 7 -53 15 -10 8 -34 15 -51 15 -18 0 -33 5 -33 10 0 6 -18 10 -39 10 -22 0 -43 5 -46 10 -3 6 -16 10 -29 10 -12 0 -31 7 -42 15 -10 8 -36 15 -56 15 -21 0 -38 5 -38 10 0 6 -15 10 -34 10 -18 0 -39 7 -46 15 -7 9 -29 15 -51 15 -22 0 -39 5 -39 10 0 6 -15 10 -34 10 -19 0 -38 5 -41 10 -3 6 -19 10 -34 10 -15 0 -36 7 -47 15 -10 8 -34 15 -51 15 -18 0 -33 5 -33 10 0 6 -18 10 -40 10 -22 0 -40 4 -40 9 0 6 -20 13 -45 17 -25 3 -45 10 -45 15 0 5 -15 9 -34 9 -19 0 -38 5 -41 10 -3 6 -21 10 -40 10 -18 0 -40 7 -49 15 -8 8 -28 15 -45 15 -17 0 -31 5 -31 10 0 6 -18 10 -39 10 -22 0 -42 4 -45 9 -3 4 -24 11 -46 15 -22 3 -40 11 -40 16 0 6 -18 10 -40 10 -22 0 -40 5 -40 10 0 6 -15 10 -34 10 -18 0 -39 7 -46 15 -14 17 -130 22 -130 5z">
            </path>
            <path id="pAUN11ql8"
                d="M2254 3197 c-16 -7 -82 -42 -145 -78 -63 -37 -186 -107 -274 -157 -88 -50 -171 -103 -185 -117 -22 -23 -23 -29 -12 -58 7 -19 12 -45 12 -58 0 -61 107 -169 167 -169 19 0 378 199 463 256 19 13 40 24 47 24 7 0 35 -46 64 -102 28 -57 55 -107 59 -113 4 -5 38 -68 75 -140 37 -71 74 -138 82 -147 24 -26 133 -25 189 3 65 31 114 90 114 137 0 21 -4 42 -9 48 -4 5 -24 38 -43 74 -163 304 -249 470 -258 497 -12 33 -24 39 -125 68 -33 9 -70 20 -81 25 -40 16 -109 19 -140 7z">
            </path>
            <path id="pkE9Di7Wd"
                d="M1299 2380 c-79 -41 -103 -74 -138 -193 -17 -56 -43 -139 -57 -185 -14 -45 -22 -91 -19 -102 9 -29 54 -60 87 -60 40 0 44 -20 19 -89 -11 -32 -21 -67 -21 -78 0 -26 -55 -52 -98 -45 -40 5 -60 -10 -68 -53 -5 -26 0 -42 20 -71 14 -21 26 -44 26 -50 0 -16 34 -44 53 -44 8 0 17 -7 19 -16 4 -19 120 -52 183 -52 60 -1 155 56 194 115 17 25 31 53 31 61 0 8 16 70 35 136 19 67 42 146 51 176 9 30 19 66 24 80 4 14 13 43 19 65 6 22 20 71 31 110 23 78 21 105 -17 182 -27 55 -101 123 -134 123 -10 0 -21 5 -24 10 -3 6 -41 10 -83 10 -65 -1 -86 -6 -133 -30z">
            </path>
            <path id="pmiR9FVnw"
                d="M2394 2032 c-20 -12 -54 -90 -54 -122 0 -44 69 -174 134 -252 75 -90 204 -178 261 -178 17 0 46 -5 65 -10 87 -26 241 -5 326 45 34 20 45 33 50 61 8 45 -1 141 -15 158 -8 10 -42 13 -124 12 -93 -1 -128 3 -207 25 -125 35 -140 41 -197 84 -68 51 -82 64 -133 121 -44 50 -83 71 -106 56z">
            </path>
        </g>
    </g>
    <g id="l5zZqrZKSmDvtveWXuTdpkl" fill="rgb(16,16,16)" style="transform: none;">
        <g>
            <path id="p156p9wGPO"
                d="M1050 4100 c0 -5 -11 -12 -25 -16 -14 -3 -25 -10 -25 -15 0 -5 -9 -9 -21 -9 -19 0 -49 -21 -49 -35 0 -3 -9 -15 -20 -27 -11 -12 -20 -27 -20 -34 0 -17 21 -29 29 -17 3 6 22 14 41 18 19 4 47 14 62 21 15 8 41 14 58 14 35 0 64 13 97 42 15 14 31 19 52 16 21 -3 31 0 31 9 0 8 -12 13 -34 13 -18 0 -39 7 -46 15 -14 17 -130 22 -130 5z">
            </path>
            <path id="plOGBsz7o"
                d="M3690 3353 c14 -9 31 -24 38 -33 21 -27 82 -159 82 -179 0 -12 12 -51 26 -88 39 -105 51 -142 72 -228 23 -94 48 -227 44 -237 -3 -12 13 -9 26 4 7 7 12 27 12 45 0 18 5 33 10 33 6 0 10 18 10 39 0 22 4 42 9 45 4 3 11 24 15 46 3 22 11 40 16 40 6 0 10 18 10 40 0 22 5 40 10 40 6 0 10 15 10 34 0 18 7 39 15 46 17 14 22 130 5 130 -5 0 -12 11 -16 25 -3 14 -10 25 -15 25 -5 0 -9 9 -9 21 0 19 -21 49 -35 49 -3 0 -15 9 -27 19 -11 11 -38 23 -59 26 -22 4 -39 11 -39 16 0 5 -18 9 -40 9 -22 0 -40 5 -40 10 0 6 -15 10 -33 10 -18 0 -42 7 -53 15 -10 8 -30 15 -44 15 l-24 0 24 -17z">
            </path>
            <path id="piH1ULYss"
                d="M2219 3172 c-62 -32 -513 -288 -545 -309 -28 -18 -45 -56 -33 -74 5 -8 9 -27 9 -42 0 -36 31 -95 67 -128 38 -34 79 -59 98 -59 13 0 302 163 459 259 49 30 60 33 68 21 5 -8 67 -125 137 -259 71 -134 135 -247 142 -252 20 -13 95 -11 143 3 55 17 146 104 146 141 0 14 -15 52 -33 84 -33 56 -141 259 -239 447 -26 50 -48 96 -48 101 0 17 -34 33 -112 54 -40 11 -89 25 -108 30 -56 17 -93 13 -151 -17z">
            </path>
            <path id="p6vWEwjiC" d="M3952 2540 c0 -19 2 -27 5 -17 2 9 2 25 0 35 -3 9 -5 1 -5 -18z"></path>
            <path id="p1E3oATDSU"
                d="M3928 2455 c-3 -14 -1 -25 3 -25 5 0 9 11 9 25 0 14 -2 25 -4 25 -2 0 -6 -11 -8 -25z"></path>
            <path id="p1FfgfMPkC"
                d="M1308 2380 c-95 -52 -107 -70 -151 -220 -77 -265 -77 -263 -30 -300 14 -11 38 -20 54 -20 15 0 30 -4 34 -10 10 -16 -46 -174 -69 -193 -15 -13 -33 -17 -64 -14 -35 4 -45 1 -57 -16 -20 -28 -19 -57 2 -87 10 -14 25 -38 33 -55 8 -16 25 -35 37 -41 13 -6 31 -18 41 -27 29 -26 111 -46 172 -43 43 3 68 11 110 39 68 44 93 81 119 177 11 41 27 100 36 130 22 73 32 110 40 140 4 14 16 54 27 90 46 154 60 216 54 255 -8 49 -55 145 -76 153 -8 3 -24 13 -35 22 -65 54 -199 64 -277 20z">
            </path>
            <path id="p15wmVWLN9" d="M3902 2369 c-6 -23 -7 -38 -2 -33 9 10 24 74 17 74 -3 0 -9 -19 -15 -41z"></path>
            <path id="prbXHPJ8f" d="M3859 2212 c-3 -20 -2 -29 4 -23 5 5 7 19 5 32 -3 20 -5 19 -9 -9z"></path>
            <path id="pLHJS49jd"
                d="M2365 1980 c-14 -27 -25 -57 -25 -67 0 -58 133 -265 207 -322 97 -76 139 -101 169 -101 18 0 60 -7 94 -16 101 -26 239 -4 322 51 l38 25 0 83 c0 45 -4 88 -9 96 -6 10 -38 13 -127 13 -232 -1 -396 70 -536 229 -70 78 -97 80 -133 9z">
            </path>
            <path id="puf8csMrL" d="M3787 1966 c-5 -15 -6 -31 -3 -34 8 -8 18 25 14 45 -3 13 -6 10 -11 -11z"></path>
            <path id="ph8KEcSC4" d="M3739 1792 c-3 -20 -2 -29 4 -23 5 5 7 19 5 32 -3 20 -5 19 -9 -9z"></path>
            <path id="pLfIRCAiu" d="M3671 1563 c0 -6 -4 -20 -7 -30 -5 -14 -4 -15 5 -7 7 7 11 20 8 30 -3 11 -5 14 -6 7z">
            </path>
            <path id="pntveW6hu" d="M3638 1455 c-3 -14 -1 -25 3 -25 5 0 9 11 9 25 0 14 -2 25 -4 25 -2 0 -6 -11 -8 -25z">
            </path>
            <path id="p1yNfWTGp"
                d="M3621 1398 c0 -10 -19 -50 -41 -90 -42 -76 -130 -254 -130 -263 0 -3 -5 -11 -10 -18 -6 -7 -34 -51 -63 -99 -128 -213 -154 -251 -217 -319 l-66 -72 -61 -5 c-62 -4 -199 19 -353 60 -41 10 -109 28 -150 39 -41 11 -122 35 -180 54 -58 18 -134 41 -170 50 -36 9 -117 32 -180 52 -63 19 -153 45 -200 57 -47 13 -173 49 -280 81 -403 118 -679 198 -798 231 -138 38 -295 98 -452 171 -58 27 -109 52 -115 54 -5 2 -11 -6 -13 -18 -2 -13 -8 -23 -13 -23 -5 0 -9 -18 -9 -40 0 -22 -4 -40 -10 -40 -5 0 -10 -15 -10 -34 0 -18 -7 -39 -15 -46 -17 -14 -22 -130 -5 -130 5 0 12 -11 16 -25 3 -14 10 -25 15 -25 5 0 9 -9 9 -21 0 -19 21 -49 35 -49 3 0 16 -9 28 -20 11 -11 38 -23 59 -26 21 -4 38 -10 38 -15 0 -5 18 -9 40 -9 22 0 40 -4 40 -10 0 -5 15 -10 34 -10 19 0 41 -7 50 -15 8 -8 28 -15 45 -15 16 0 33 -4 36 -10 3 -5 21 -10 40 -10 19 0 36 -4 39 -9 3 -4 24 -11 46 -15 22 -3 40 -11 40 -16 0 -6 20 -10 45 -10 25 0 45 -4 45 -10 0 -5 16 -10 35 -10 22 0 38 -6 41 -15 4 -10 20 -15 44 -15 22 0 42 -4 45 -10 3 -5 22 -10 41 -10 19 0 34 -4 34 -9 0 -4 19 -11 42 -14 24 -3 44 -11 46 -16 2 -6 21 -11 43 -11 21 0 39 -4 39 -10 0 -5 13 -10 29 -10 16 0 42 -7 57 -15 16 -8 41 -15 57 -15 15 0 27 -4 27 -10 0 -5 16 -10 35 -10 19 0 35 -4 35 -10 0 -5 15 -10 33 -10 18 0 42 -7 53 -15 10 -8 34 -15 52 -15 17 0 32 -4 32 -10 0 -5 18 -10 39 -10 22 0 43 -5 46 -10 3 -6 14 -10 23 -10 9 0 30 -7 46 -15 15 -8 44 -15 62 -15 19 0 34 -4 34 -10 0 -5 15 -10 34 -10 18 0 39 -7 46 -15 7 -8 27 -15 46 -15 18 0 36 -4 39 -10 3 -6 21 -10 40 -10 19 0 37 -5 40 -10 3 -6 16 -10 28 -10 12 0 35 -7 51 -15 15 -8 41 -15 57 -15 16 0 29 -4 29 -10 0 -5 13 -10 29 -10 16 0 42 -7 57 -15 16 -8 41 -15 57 -15 15 0 27 -4 27 -10 0 -5 15 -10 34 -10 19 0 38 -5 41 -10 3 -6 19 -10 34 -10 15 0 36 -7 47 -15 10 -8 34 -15 52 -15 17 0 32 -4 32 -10 0 -5 18 -10 39 -10 22 0 42 -4 45 -9 4 -5 24 -12 46 -16 22 -4 40 -11 40 -16 0 -5 18 -9 40 -9 22 0 40 -4 40 -10 0 -5 15 -10 34 -10 18 0 39 -7 46 -15 14 -17 130 -22 130 -5 0 5 11 12 25 16 14 3 25 10 25 15 0 5 9 9 21 9 19 0 49 21 49 35 0 3 8 15 19 26 10 11 21 38 25 60 3 21 11 39 16 39 6 0 10 18 10 40 0 22 5 40 10 40 6 0 10 15 10 33 0 18 7 42 15 53 8 10 15 34 15 52 0 17 5 32 10 32 6 0 10 18 10 40 0 22 5 40 10 40 6 0 10 13 10 29 0 16 7 36 15 45 8 8 15 32 15 55 0 23 5 41 10 41 6 0 10 15 10 33 0 17 7 41 15 51 8 11 15 32 15 48 0 15 5 28 10 28 6 0 10 18 10 40 0 22 5 40 10 40 6 0 10 15 10 33 0 18 7 42 15 53 8 10 15 34 15 52 0 17 5 32 10 32 6 0 10 15 10 34 0 19 4 37 9 40 5 3 12 23 16 43 4 21 11 43 17 50 5 7 8 22 5 35 -3 14 -5 16 -6 6z">
            </path>
        </g>
    </g>
    <g id="l4iUEvcGLzUDFTsQUsvE8Uk" fill="rgb(25,25,25)" style="transform: none;">
        <g>
            <path id="pA2jEIbsm"
                d="M4020 3246 c0 -3 7 -12 16 -20 8 -9 11 -16 5 -16 -17 0 -13 -55 10 -122 11 -34 18 -70 16 -80 -6 -20 13 -24 31 -6 14 14 16 128 2 128 -5 0 -12 11 -16 25 -3 14 -10 25 -15 25 -5 0 -9 9 -9 21 0 11 -6 27 -14 35 -14 14 -26 18 -26 10z">
            </path>
            <path id="p1FjTN9QLP"
                d="M2244 3181 c-33 -15 -221 -120 -529 -296 -70 -40 -77 -53 -66 -124 13 -78 57 -144 122 -179 l46 -26 199 114 c109 63 223 129 252 148 30 18 60 31 68 28 8 -3 21 -21 29 -39 7 -18 56 -112 107 -208 52 -96 100 -189 107 -207 29 -70 90 -88 186 -55 55 18 145 101 145 133 0 11 -63 136 -139 277 -76 142 -152 285 -168 318 -28 60 -29 60 -98 82 -197 61 -200 62 -261 34z">
            </path>
            <path id="prPGlUhWM"
                d="M1307 2378 c-92 -48 -102 -65 -157 -257 -28 -94 -50 -187 -50 -206 0 -39 26 -63 83 -74 38 -8 39 -20 10 -124 -22 -78 -46 -97 -118 -97 -46 0 -55 -10 -55 -57 0 -25 58 -133 72 -133 3 0 19 -11 35 -24 69 -58 210 -65 289 -14 47 30 104 95 104 118 0 9 6 36 14 61 18 57 63 212 77 264 6 22 15 51 19 65 5 14 16 52 25 85 9 33 22 73 28 90 6 16 11 53 11 82 0 67 -47 171 -81 179 -13 4 -27 13 -32 21 -13 24 -105 52 -165 50 -39 -1 -71 -9 -109 -29z">
            </path>
            <path id="pdzLwJtzT"
                d="M2390 2015 c-28 -34 -49 -89 -44 -114 11 -46 72 -159 119 -219 40 -51 145 -141 209 -179 12 -7 35 -12 53 -13 18 0 58 -7 90 -15 95 -25 149 -19 275 33 68 27 78 44 78 125 0 108 -2 109 -146 108 -65 0 -132 4 -149 8 -212 62 -263 92 -387 229 -48 53 -76 64 -98 37z">
            </path>
            <path id="pqAweM0HO"
                d="M120 1290 c0 -17 -4 -30 -10 -30 -5 0 -10 -15 -10 -34 0 -18 -7 -39 -15 -46 -17 -14 -22 -130 -5 -130 5 0 12 -11 16 -25 3 -14 10 -25 15 -25 5 0 9 -9 9 -21 0 -19 21 -49 35 -49 3 0 16 -9 28 -20 11 -11 38 -23 59 -26 21 -4 38 -10 38 -15 0 -5 18 -9 40 -9 22 0 40 -4 40 -10 0 -5 15 -10 34 -10 19 0 41 -7 50 -15 8 -8 28 -15 45 -15 16 0 33 -4 36 -10 3 -5 21 -10 40 -10 19 0 36 -4 39 -9 3 -4 24 -11 46 -15 22 -3 40 -11 40 -16 0 -6 20 -10 45 -10 25 0 45 -4 45 -10 0 -5 16 -10 35 -10 22 0 38 -6 41 -15 4 -10 20 -15 44 -15 22 0 42 -4 45 -10 3 -5 22 -10 41 -10 19 0 34 -4 34 -9 0 -4 19 -11 42 -14 24 -3 44 -11 46 -16 2 -6 21 -11 43 -11 21 0 39 -4 39 -10 0 -5 13 -10 29 -10 16 0 42 -7 57 -15 16 -8 41 -15 57 -15 15 0 27 -4 27 -10 0 -5 16 -10 35 -10 19 0 35 -4 35 -10 0 -5 15 -10 33 -10 18 0 42 -7 53 -15 10 -8 34 -15 52 -15 17 0 32 -4 32 -10 0 -5 18 -10 39 -10 22 0 43 -4 46 -10 3 -5 14 -10 23 -10 9 0 30 -7 46 -15 15 -8 44 -15 62 -15 19 0 34 -4 34 -10 0 -5 15 -10 34 -10 18 0 39 -7 46 -15 7 -8 27 -15 46 -15 18 0 36 -5 39 -10 3 -6 21 -10 40 -10 19 0 37 -4 40 -10 3 -5 16 -10 28 -10 12 0 35 -7 51 -15 15 -8 41 -15 57 -15 16 0 29 -4 29 -10 0 -5 13 -10 29 -10 16 0 42 -7 57 -15 16 -8 41 -15 57 -15 15 0 27 -4 27 -10 0 -5 15 -10 34 -10 19 0 38 -4 41 -10 3 -5 19 -10 34 -10 15 0 36 -7 47 -15 10 -8 34 -15 52 -15 17 0 32 -4 32 -10 0 -5 18 -10 39 -10 22 0 42 -4 45 -9 4 -5 24 -12 46 -16 22 -4 40 -11 40 -16 0 -5 18 -9 40 -9 22 0 40 -4 40 -10 0 -5 15 -10 34 -10 18 0 39 -7 46 -15 14 -17 130 -22 130 -5 0 5 11 12 25 16 14 3 25 10 25 15 0 5 9 9 21 9 19 0 49 21 49 35 0 3 8 15 19 26 10 11 21 38 25 60 3 21 11 39 16 39 6 0 10 18 10 40 0 22 5 40 10 40 6 0 10 15 10 33 0 18 7 42 15 53 8 10 14 30 14 44 0 21 -1 22 -9 8 -16 -27 -110 -41 -234 -34 -231 14 -326 36 -906 207 -137 40 -319 92 -405 116 -108 30 -470 136 -577 169 -42 13 -112 32 -155 43 -43 11 -154 43 -248 71 -93 29 -201 61 -240 72 -38 10 -97 30 -130 43 -33 13 -100 39 -150 58 -49 19 -114 44 -142 56 l-53 21 0 -30z">
            </path>
        </g>
    </g>
    <g id="l3pQWhZbFvstciNNNlFbVj" fill="rgb(33,33,33)" style="transform: none;">
        <g>
            <path id="pmASbT5wF"
                d="M2250 3184 c-19 -8 -55 -28 -80 -43 -25 -15 -144 -84 -265 -152 -121 -68 -230 -133 -242 -145 -23 -23 -24 -58 -1 -133 13 -43 71 -107 119 -131 35 -18 38 -18 70 -1 29 15 355 203 446 257 42 25 42 25 133 -151 191 -368 189 -365 248 -365 64 0 130 31 182 86 54 57 57 66 37 104 -8 14 -49 90 -92 170 -155 289 -212 399 -219 423 -6 19 -25 29 -111 52 -33 9 -70 21 -81 25 -46 18 -109 20 -144 4z">
            </path>
            <path id="pKakaH5aN"
                d="M1307 2375 c-87 -48 -102 -74 -158 -262 -27 -93 -49 -180 -49 -194 0 -32 38 -69 82 -78 37 -8 40 -23 18 -96 -6 -22 -14 -53 -17 -68 -7 -34 -47 -57 -103 -57 -33 0 -42 -4 -51 -24 -7 -14 -9 -35 -5 -48 11 -41 66 -118 91 -128 14 -5 25 -14 25 -19 0 -17 102 -40 165 -38 100 5 193 74 216 162 5 22 14 51 18 65 5 14 14 43 20 65 31 115 93 329 124 430 19 62 13 118 -19 184 -22 47 -35 62 -56 66 -15 4 -30 15 -33 26 -4 10 -15 19 -26 19 -11 0 -30 5 -42 12 -12 7 -50 12 -84 13 -50 0 -72 -6 -116 -30z">
            </path>
            <path id="puOOULq7u"
                d="M2393 2018 c-22 -28 -43 -83 -43 -110 0 -16 16 -61 36 -100 51 -101 123 -186 216 -254 18 -13 43 -31 55 -40 13 -9 49 -20 80 -24 32 -5 88 -14 126 -21 59 -11 74 -11 120 3 28 10 64 19 78 22 14 3 44 19 67 36 42 30 42 30 42 94 0 36 -4 76 -10 90 -9 25 -11 25 -147 29 -145 4 -181 10 -278 47 -79 30 -131 68 -225 163 -77 77 -99 88 -117 65z">
            </path>
            <path id="pZKCvReQw"
                d="M100 1227 c0 -19 -7 -40 -15 -47 -17 -14 -22 -130 -5 -130 5 0 12 -11 16 -25 3 -14 10 -25 15 -25 5 0 9 -9 9 -21 0 -19 21 -49 35 -49 3 0 16 -9 28 -20 11 -11 38 -23 59 -26 21 -4 38 -10 38 -15 0 -5 18 -9 40 -9 22 0 40 -4 40 -10 0 -5 15 -10 34 -10 19 0 41 -7 50 -15 8 -8 28 -15 45 -15 16 0 33 -4 36 -10 3 -5 21 -10 40 -10 19 0 36 -4 39 -9 3 -4 24 -11 46 -15 22 -3 40 -11 40 -16 0 -6 20 -10 45 -10 25 0 45 -4 45 -10 0 -5 16 -10 35 -10 22 0 38 -6 41 -15 4 -10 20 -15 44 -15 22 0 42 -4 45 -10 3 -5 22 -10 41 -10 19 0 34 -4 34 -9 0 -4 19 -11 42 -14 24 -3 44 -11 46 -16 2 -6 21 -11 43 -11 21 0 39 -4 39 -10 0 -5 13 -10 29 -10 16 0 42 -7 57 -15 16 -8 41 -15 57 -15 15 0 27 -4 27 -10 0 -5 16 -10 35 -10 19 0 35 -4 35 -10 0 -5 15 -10 33 -10 18 0 42 -7 53 -15 10 -8 34 -15 52 -15 17 0 32 -4 32 -10 0 -5 18 -10 39 -10 22 0 43 -4 46 -10 3 -5 14 -10 23 -10 9 0 30 -7 46 -15 15 -8 44 -15 62 -15 19 0 34 -4 34 -10 0 -5 15 -10 34 -10 18 0 39 -7 46 -15 7 -8 27 -15 46 -15 18 0 36 -4 39 -10 3 -5 21 -10 40 -10 19 0 37 -4 40 -10 3 -6 16 -10 28 -10 12 0 35 -7 51 -15 15 -8 41 -15 57 -15 16 0 29 -4 29 -10 0 -5 13 -10 29 -10 16 0 42 -7 57 -15 16 -8 41 -15 57 -15 15 0 27 -4 27 -10 0 -5 15 -10 34 -10 19 0 38 -4 41 -10 3 -5 19 -10 34 -10 15 0 36 -7 47 -15 10 -8 34 -15 52 -15 17 0 32 -4 32 -10 0 -5 18 -10 39 -10 22 0 42 -4 45 -9 4 -5 24 -12 46 -16 22 -4 40 -11 40 -16 0 -5 18 -9 40 -9 22 0 40 -4 40 -10 0 -5 15 -10 34 -10 18 0 39 -7 46 -15 14 -17 130 -22 130 -5 0 5 11 12 25 16 14 3 25 10 25 15 0 5 9 9 21 9 19 0 49 21 49 35 0 3 8 15 19 26 10 11 21 38 25 60 3 21 11 39 16 39 6 0 10 18 10 40 0 22 5 40 10 40 8 0 15 39 8 41 -2 0 -48 2 -103 5 -271 12 -497 57 -855 169 -58 18 -150 45 -205 60 -55 15 -134 37 -175 50 -41 14 -122 38 -180 54 -58 16 -208 59 -335 96 -126 37 -259 75 -295 85 -36 10 -121 34 -190 54 -69 20 -188 55 -265 77 -150 43 -331 105 -485 164 -52 21 -107 39 -122 42 -26 5 -28 3 -28 -30z">
            </path>
        </g>
    </g>
    <g id="l6COEY1fq6o1vf6IjpQKbPe" fill="rgb(41,41,41)" style="transform: none;">
        <g>
            <path id="p1FhXmqI3j"
                d="M2253 3181 c-23 -11 -93 -48 -155 -84 -62 -35 -171 -97 -243 -137 -210 -118 -205 -113 -205 -163 0 -64 16 -109 56 -155 38 -44 81 -72 111 -72 10 0 54 21 98 46 44 26 132 76 195 112 63 36 134 78 157 94 63 43 78 38 113 -34 16 -35 76 -151 132 -258 98 -186 105 -195 139 -204 55 -13 140 16 196 67 77 71 81 55 -83 360 -81 149 -156 292 -167 317 -24 54 -24 54 -112 80 -38 11 -83 24 -100 29 -66 20 -90 21 -132 2z">
            </path>
            <path id="pN0XT6V3E"
                d="M1390 2401 c-57 -9 -116 -40 -157 -83 -26 -28 -40 -62 -82 -210 -28 -97 -51 -185 -51 -196 0 -26 40 -60 79 -68 39 -8 48 -26 34 -68 -6 -17 -17 -53 -24 -79 -16 -57 -40 -75 -105 -79 -42 -3 -50 -6 -58 -29 -7 -22 -3 -38 21 -85 17 -33 40 -64 52 -70 11 -6 29 -19 40 -28 54 -49 196 -56 271 -13 78 45 95 76 151 282 6 22 15 51 19 65 5 14 16 52 25 85 9 33 21 71 25 85 4 14 16 52 25 85 9 33 22 73 28 89 20 53 11 126 -23 189 -17 31 -38 57 -45 57 -8 0 -24 11 -37 23 -20 20 -117 60 -137 56 -3 -1 -26 -5 -51 -8z">
            </path>
            <path id="pf8cYTVc1"
                d="M2372 1979 c-30 -56 -28 -80 15 -166 46 -93 123 -186 201 -246 80 -61 90 -65 169 -78 164 -28 228 -23 337 24 66 29 79 52 74 131 -6 94 -9 96 -149 96 -119 0 -216 17 -305 55 -56 23 -157 101 -215 164 -68 76 -95 80 -127 20z">
            </path>
            <path id="p1GzIQkMQo"
                d="M100 1206 c0 -8 -7 -19 -15 -26 -17 -14 -22 -130 -5 -130 5 0 12 -11 16 -25 3 -14 10 -25 15 -25 5 0 9 -9 9 -21 0 -19 21 -49 35 -49 3 0 16 -9 28 -20 11 -11 38 -23 59 -26 21 -4 38 -10 38 -15 0 -5 18 -9 40 -9 22 0 40 -4 40 -10 0 -5 15 -10 34 -10 19 0 41 -7 50 -15 8 -8 28 -15 45 -15 16 0 33 -4 36 -10 3 -5 21 -10 40 -10 19 0 36 -4 39 -9 3 -4 24 -11 46 -15 22 -3 40 -11 40 -16 0 -6 20 -10 45 -10 25 0 45 -4 45 -10 0 -5 16 -10 35 -10 22 0 38 -6 41 -15 4 -10 20 -15 44 -15 22 0 42 -4 45 -10 3 -5 22 -10 41 -10 19 0 34 -4 34 -9 0 -4 19 -11 42 -14 24 -3 44 -11 46 -16 2 -6 21 -11 43 -11 21 0 39 -4 39 -10 0 -5 13 -10 29 -10 16 0 42 -7 57 -15 16 -8 41 -15 57 -15 15 0 27 -4 27 -10 0 -5 16 -10 35 -10 19 0 35 -4 35 -10 0 -5 15 -10 33 -10 18 0 42 -7 53 -15 10 -8 34 -15 52 -15 17 0 32 -4 32 -10 0 -5 18 -10 39 -10 22 0 43 -4 46 -10 3 -5 14 -10 23 -10 9 0 30 -7 46 -15 15 -8 44 -15 62 -15 19 0 34 -4 34 -10 0 -5 15 -10 34 -10 18 0 39 -7 46 -15 7 -8 27 -15 46 -15 18 0 36 -5 39 -10 3 -6 21 -10 40 -10 19 0 37 -5 40 -10 3 -6 16 -10 28 -10 12 0 35 -7 51 -15 15 -8 41 -15 57 -15 16 0 29 -4 29 -10 0 -5 13 -10 29 -10 16 0 42 -7 57 -15 16 -8 41 -15 57 -15 15 0 27 -4 27 -10 0 -5 15 -10 34 -10 19 0 38 -4 41 -10 3 -5 19 -10 34 -10 15 0 36 -7 47 -15 10 -8 34 -15 52 -15 17 0 32 -4 32 -10 0 -5 18 -10 39 -10 22 0 42 -4 45 -9 4 -5 24 -12 46 -16 22 -4 40 -11 40 -16 0 -5 18 -9 40 -9 22 0 40 -4 40 -10 0 -5 15 -10 34 -10 18 0 39 -7 46 -15 14 -17 130 -22 130 -5 0 5 11 12 25 16 14 3 25 10 25 15 0 5 9 9 21 9 19 0 49 21 49 35 0 3 8 15 19 26 10 11 21 38 25 60 3 21 11 39 16 39 6 0 10 18 10 40 l0 40 -93 0 c-166 0 -489 54 -662 110 -33 11 -141 42 -240 70 -99 27 -209 58 -245 69 -335 98 -475 139 -590 172 -74 21 -182 52 -240 69 -58 17 -145 43 -195 57 -113 32 -382 109 -455 131 -30 8 -113 38 -185 64 -298 112 -315 118 -315 104z">
            </path>
        </g>
    </g>
    <g id="l280SE3bDOk5akeV58WEQjf" fill="rgb(49,49,49)" style="transform: none;">
        <g>
            <path id="p15vzMvgFQ"
                d="M2248 3175 c-64 -27 -556 -306 -582 -330 -15 -14 -18 -27 -13 -71 3 -30 16 -73 29 -96 26 -48 99 -108 130 -108 20 0 154 74 401 222 54 32 107 58 117 58 15 0 35 -30 85 -127 114 -225 197 -378 208 -385 23 -14 122 -8 162 11 50 22 115 93 115 125 0 13 -57 129 -126 257 -70 129 -144 269 -166 312 -43 84 -41 83 -158 117 -131 39 -144 40 -202 15z">
            </path>
            <path id="pBGqN5IrG"
                d="M1303 2369 c-83 -48 -94 -67 -153 -273 l-53 -187 20 -27 c13 -17 35 -30 62 -36 44 -9 52 -28 32 -78 -5 -13 -15 -43 -22 -68 -17 -60 -42 -79 -102 -80 -42 0 -49 -3 -58 -27 -8 -22 -5 -37 22 -91 17 -35 38 -66 47 -69 10 -3 27 -15 38 -25 29 -26 108 -45 175 -42 42 1 67 9 104 33 51 32 105 100 105 132 0 10 4 28 9 41 5 13 17 50 26 83 10 33 21 71 25 85 4 14 16 54 25 90 9 36 21 74 25 85 26 66 60 209 60 252 0 56 -50 163 -76 163 -8 0 -25 11 -37 23 -27 29 -60 38 -152 43 -63 3 -75 0 -122 -27z">
            </path>
            <path id="pdA2Tdk5d"
                d="M2392 2008 c-19 -25 -42 -77 -42 -98 0 -31 65 -153 117 -220 25 -33 82 -87 125 -121 70 -54 87 -62 156 -76 118 -22 199 -27 246 -13 90 27 125 42 151 66 27 25 28 29 22 97 -4 51 -11 75 -23 84 -11 8 -57 12 -135 12 -222 0 -375 67 -521 230 -46 51 -76 63 -96 39z">
            </path>
            <path id="pHiNd61B9"
                d="M70 1110 c0 -33 4 -60 10 -60 5 0 12 -11 16 -25 3 -14 10 -25 15 -25 5 0 9 -9 9 -21 0 -19 21 -49 35 -49 3 0 16 -9 28 -20 11 -11 38 -23 59 -26 21 -4 38 -10 38 -15 0 -5 18 -9 40 -9 22 0 40 -4 40 -10 0 -5 15 -10 34 -10 19 0 41 -7 50 -15 8 -8 28 -15 45 -15 16 0 33 -4 36 -10 3 -5 21 -10 40 -10 19 0 36 -4 39 -9 3 -4 24 -11 46 -15 22 -3 40 -11 40 -16 0 -6 20 -10 45 -10 25 0 45 -4 45 -10 0 -5 16 -10 35 -10 22 0 38 -6 41 -15 4 -10 20 -15 44 -15 22 0 42 -4 45 -10 3 -5 22 -10 41 -10 19 0 34 -4 34 -9 0 -4 19 -11 42 -14 24 -3 44 -11 46 -16 2 -6 21 -11 43 -11 21 0 39 -4 39 -10 0 -5 13 -10 29 -10 16 0 42 -7 57 -15 16 -8 41 -15 57 -15 15 0 27 -4 27 -10 0 -5 16 -10 35 -10 19 0 35 -4 35 -10 0 -5 15 -10 33 -10 18 0 42 -7 53 -15 10 -8 34 -15 52 -15 17 0 32 -4 32 -10 0 -5 18 -10 39 -10 22 0 43 -4 46 -10 3 -5 14 -10 23 -10 9 0 30 -7 46 -15 15 -8 44 -15 62 -15 19 0 34 -4 34 -10 0 -5 15 -10 34 -10 18 0 39 -7 46 -15 7 -8 27 -15 46 -15 18 0 36 -5 39 -10 3 -6 21 -10 40 -10 19 0 37 -5 40 -10 3 -6 16 -10 28 -10 12 0 35 -7 51 -15 15 -8 41 -15 57 -15 16 0 29 -4 29 -10 0 -5 13 -10 29 -10 16 0 42 -7 57 -15 16 -8 41 -15 57 -15 15 0 27 -4 27 -10 0 -5 15 -10 34 -10 19 0 38 -4 41 -10 3 -5 19 -10 34 -10 15 0 36 -7 47 -15 10 -8 34 -15 52 -15 17 0 32 -4 32 -10 0 -5 18 -10 39 -10 22 0 42 -4 45 -9 4 -5 24 -12 46 -16 22 -4 40 -11 40 -16 0 -5 18 -9 40 -9 22 0 40 -4 40 -10 0 -5 15 -10 34 -10 18 0 39 -7 46 -15 14 -17 130 -22 130 -5 0 5 11 12 25 16 14 3 25 10 25 15 0 5 9 9 21 9 19 0 49 21 49 35 0 3 8 15 19 26 10 11 21 38 25 60 3 21 11 39 16 39 6 0 10 7 10 15 0 12 -16 15 -80 15 -136 0 -357 30 -515 70 -137 35 -341 93 -660 187 -66 19 -165 48 -220 63 -151 42 -342 97 -415 119 -36 11 -135 40 -220 64 -85 25 -240 70 -345 101 -104 30 -217 62 -250 70 -34 9 -101 31 -150 49 -50 19 -152 57 -227 85 -75 29 -144 52 -152 52 -13 0 -16 -12 -16 -60z">
            </path>
        </g>
    </g>
    <g id="lSb5y2SgAq19JAcxKxVPAk" fill="rgb(58,58,58)" style="transform: none;">
        <g>
            <path id="ptuWcKu2D"
                d="M2240 3172 c-19 -10 -109 -61 -200 -112 -91 -51 -212 -120 -270 -152 -57 -33 -108 -65 -113 -71 -14 -21 4 -120 30 -165 29 -51 107 -106 139 -98 20 5 125 65 387 219 101 59 121 68 132 56 7 -8 43 -70 78 -139 129 -251 180 -345 195 -362 18 -21 85 -24 146 -6 47 14 136 99 136 130 0 11 -66 141 -146 291 -81 149 -155 290 -165 313 -21 45 -30 51 -149 85 -104 30 -157 33 -200 11z">
            </path>
            <path id="pkfWcV5av"
                d="M1309 2371 c-84 -48 -100 -77 -158 -277 -28 -99 -49 -188 -46 -197 9 -21 43 -43 82 -51 39 -9 44 -21 28 -71 -7 -22 -18 -60 -25 -86 -15 -52 -41 -69 -106 -69 -45 0 -54 -10 -54 -58 0 -35 54 -120 83 -131 13 -5 29 -16 36 -24 21 -26 109 -46 171 -38 86 10 181 82 196 149 3 15 12 47 19 72 7 25 18 63 24 85 6 22 22 78 36 125 14 47 30 101 35 120 20 73 42 146 51 168 5 13 9 45 9 72 0 61 -52 170 -81 170 -10 0 -26 11 -34 24 -18 27 -52 36 -150 40 -60 3 -76 0 -116 -23z">
            </path>
            <path id="p7NR2epjb"
                d="M2393 2008 c-16 -21 -43 -80 -43 -95 0 -28 70 -160 117 -220 39 -51 141 -141 200 -176 17 -11 166 -39 231 -44 60 -6 171 25 225 61 27 18 33 30 38 71 5 47 -2 110 -15 122 -3 3 -65 7 -138 8 -117 3 -144 7 -228 34 -122 40 -258 138 -317 228 -17 25 -55 31 -70 11z">
            </path>
            <path id="p1AavBAZw"
                d="M70 1086 c0 -20 4 -36 10 -36 5 0 12 -11 16 -25 3 -14 10 -25 15 -25 5 0 9 -9 9 -21 0 -19 21 -49 35 -49 3 0 16 -9 28 -20 11 -11 38 -23 59 -26 21 -4 38 -10 38 -15 0 -5 18 -9 40 -9 22 0 40 -4 40 -10 0 -5 15 -10 34 -10 19 0 41 -7 50 -15 8 -8 28 -15 45 -15 16 0 33 -4 36 -10 3 -5 21 -10 40 -10 19 0 36 -4 39 -9 3 -4 24 -11 46 -15 22 -3 40 -11 40 -16 0 -6 20 -10 45 -10 25 0 45 -4 45 -10 0 -5 16 -10 35 -10 22 0 38 -6 41 -15 4 -10 20 -15 44 -15 22 0 42 -4 45 -10 3 -5 22 -10 41 -10 19 0 34 -4 34 -9 0 -4 19 -11 42 -14 24 -3 44 -11 46 -16 2 -6 21 -11 43 -11 21 0 39 -4 39 -10 0 -5 13 -10 29 -10 16 0 42 -7 57 -15 16 -8 41 -15 57 -15 15 0 27 -4 27 -10 0 -5 16 -10 35 -10 19 0 35 -4 35 -10 0 -5 15 -10 33 -10 18 0 42 -7 53 -15 10 -8 34 -15 52 -15 17 0 32 -4 32 -10 0 -5 18 -10 39 -10 22 0 43 -5 46 -10 3 -6 14 -10 23 -10 9 0 30 -7 46 -15 15 -8 44 -15 62 -15 19 0 34 -4 34 -10 0 -5 15 -10 34 -10 18 0 39 -7 46 -15 7 -8 27 -15 46 -15 18 0 36 -5 39 -10 3 -6 21 -10 40 -10 19 0 37 -5 40 -10 3 -6 16 -10 28 -10 12 0 35 -7 51 -15 15 -8 41 -15 57 -15 16 0 29 -4 29 -10 0 -5 13 -10 29 -10 16 0 42 -7 57 -15 16 -8 41 -15 57 -15 15 0 27 -4 27 -10 0 -5 15 -10 34 -10 19 0 38 -5 41 -10 3 -6 19 -10 34 -10 15 0 36 -7 47 -15 10 -8 34 -15 52 -15 17 0 32 -4 32 -10 0 -5 18 -10 39 -10 22 0 42 -4 45 -9 4 -5 24 -12 46 -16 22 -4 40 -11 40 -16 0 -5 18 -9 40 -9 22 0 40 -4 40 -10 0 -5 15 -10 34 -10 18 0 39 -7 46 -15 14 -17 130 -22 130 -5 0 5 11 12 25 16 14 3 25 10 25 15 0 5 9 9 21 9 19 0 49 21 49 35 0 3 9 15 20 27 20 22 28 68 11 68 -32 0 -280 22 -341 30 -91 13 -149 25 -260 55 -47 13 -130 35 -185 50 -55 15 -127 35 -160 46 -33 10 -154 46 -270 79 -115 33 -244 69 -285 81 -41 12 -145 42 -230 66 -85 25 -193 56 -240 68 -47 13 -97 28 -110 34 -14 5 -83 26 -155 46 -71 20 -191 54 -265 75 -74 21 -162 46 -195 54 -33 8 -105 34 -160 56 -55 23 -149 59 -210 80 -60 21 -118 41 -127 45 -15 6 -18 1 -18 -29z">
            </path>
        </g>
    </g>
    <g id="l2eDqWkso88wyYgdzUl0cJj" fill="rgb(66,66,66)" style="transform: none;">
        <g>
            <path id="pzy4JjApQ"
                d="M2219 3157 c-121 -63 -534 -299 -552 -315 -16 -14 -18 -26 -12 -67 3 -27 15 -69 26 -92 25 -52 91 -103 133 -103 27 0 190 90 483 265 31 18 34 18 49 3 9 -9 70 -119 134 -244 65 -126 127 -239 138 -251 45 -51 183 -16 247 62 19 24 35 50 35 59 0 9 -64 134 -142 278 -77 144 -152 286 -165 315 -24 52 -25 53 -96 73 -40 12 -92 28 -116 36 -65 21 -91 18 -162 -19z">
            </path>
            <path id="pxosqb9nY"
                d="M1308 2370 c-73 -40 -101 -84 -137 -212 -17 -62 -39 -143 -50 -181 l-20 -67 26 -30 c14 -17 35 -30 47 -30 12 0 30 -6 40 -13 17 -13 17 -18 -10 -104 -26 -82 -32 -93 -62 -107 -19 -9 -43 -14 -58 -10 -57 15 -71 -51 -25 -126 15 -25 37 -50 49 -56 12 -6 30 -18 39 -26 20 -18 118 -49 127 -41 3 3 24 5 47 5 70 -1 162 65 186 133 6 17 19 57 28 90 9 33 20 71 25 85 4 14 13 43 19 65 5 22 22 78 35 125 14 47 37 124 51 171 33 113 32 148 -6 224 -25 51 -36 64 -60 69 -16 3 -29 12 -29 20 0 20 -91 44 -160 43 -39 0 -68 -8 -102 -27z">
            </path>
            <path id="pPsR0kORM"
                d="M2373 1965 l-27 -55 47 -93 c61 -119 94 -159 195 -240 67 -53 92 -67 130 -72 26 -4 72 -13 103 -21 74 -18 118 -18 182 2 81 25 106 35 132 56 22 17 25 27 25 87 0 101 -6 106 -132 104 -114 -2 -200 13 -297 51 -80 32 -136 72 -226 164 -40 39 -79 72 -89 72 -10 0 -27 -21 -43 -55z">
            </path>
            <path id="p5BKOUAIt"
                d="M70 1061 c0 -6 4 -11 10 -11 5 0 12 -11 16 -25 3 -14 10 -25 15 -25 5 0 9 -9 9 -21 0 -19 21 -49 35 -49 3 0 16 -9 28 -20 11 -11 38 -23 59 -26 21 -4 38 -10 38 -15 0 -5 18 -9 40 -9 22 0 40 -4 40 -10 0 -5 15 -10 34 -10 19 0 41 -7 50 -15 8 -8 28 -15 45 -15 16 0 33 -4 36 -10 3 -5 21 -10 40 -10 19 0 36 -4 39 -9 3 -4 24 -11 46 -15 22 -3 40 -11 40 -16 0 -6 20 -10 45 -10 25 0 45 -4 45 -10 0 -5 16 -10 35 -10 22 0 38 -6 41 -15 4 -10 20 -15 44 -15 22 0 42 -4 45 -10 3 -5 22 -10 41 -10 19 0 34 -4 34 -9 0 -4 19 -11 42 -14 24 -3 44 -11 46 -16 2 -6 21 -11 43 -11 21 0 39 -4 39 -10 0 -5 13 -10 29 -10 16 0 42 -7 57 -15 16 -8 41 -15 57 -15 15 0 27 -4 27 -10 0 -5 16 -10 35 -10 19 0 35 -4 35 -10 0 -5 15 -10 33 -10 18 0 42 -7 53 -15 10 -8 34 -15 52 -15 17 0 32 -4 32 -10 0 -5 18 -10 39 -10 22 0 43 -5 46 -10 3 -6 14 -10 23 -10 9 0 30 -7 46 -15 15 -8 44 -15 62 -15 19 0 34 -4 34 -10 0 -5 15 -10 34 -10 18 0 39 -7 46 -15 7 -8 27 -15 46 -15 18 0 36 -4 39 -10 3 -5 21 -10 40 -10 19 0 37 -5 40 -10 3 -6 16 -10 28 -10 12 0 35 -7 51 -15 15 -8 41 -15 57 -15 16 0 29 -4 29 -10 0 -5 13 -10 29 -10 16 0 42 -7 57 -15 16 -8 41 -15 57 -15 15 0 27 -4 27 -10 0 -5 15 -10 34 -10 19 0 38 -4 41 -10 3 -5 19 -10 34 -10 15 0 36 -7 47 -15 10 -8 34 -15 52 -15 17 0 32 -4 32 -10 0 -5 18 -10 39 -10 22 0 42 -4 45 -9 4 -5 24 -12 46 -16 22 -4 40 -11 40 -16 0 -5 18 -9 40 -9 22 0 40 -4 40 -10 0 -5 15 -10 34 -10 18 0 39 -7 46 -15 14 -17 130 -22 130 -5 0 5 11 12 25 16 14 3 25 10 25 15 0 5 9 9 21 9 19 0 49 21 49 35 0 3 9 16 21 28 l20 22 -132 7 c-261 14 -339 31 -949 205 -184 52 -427 122 -540 154 -113 32 -243 70 -290 85 -47 15 -114 35 -150 45 -36 9 -200 56 -364 103 -165 47 -303 86 -308 86 -6 0 -62 21 -126 46 -137 55 -231 90 -287 108 -22 8 -48 17 -57 21 -11 4 -18 3 -18 -4z">
            </path>
        </g>
    </g>
    <g id="l4Mrcb7WEjAAfUEueE6ga9y" fill="rgb(74,74,74)" style="transform: none;">
        <g>
            <path id="p2g5uU7Mt"
                d="M2240 3167 c-25 -13 -81 -43 -125 -68 -44 -25 -159 -90 -255 -144 -96 -54 -183 -107 -193 -118 -21 -24 -15 -91 14 -148 25 -51 95 -109 131 -109 25 0 299 150 460 252 28 18 55 27 65 24 11 -3 44 -57 80 -128 123 -243 194 -373 210 -385 46 -35 157 -3 226 65 50 49 55 63 34 102 -30 57 -112 208 -137 255 -33 59 -92 171 -146 274 -42 81 -46 83 -174 121 -109 33 -138 34 -190 7z">
            </path>
            <path id="plJK9HczH"
                d="M1313 2369 c-87 -50 -98 -69 -153 -254 -27 -94 -50 -182 -50 -196 0 -30 37 -69 66 -69 11 0 28 -6 38 -13 18 -13 18 -17 4 -63 -9 -27 -21 -67 -28 -90 -15 -50 -52 -75 -106 -71 -34 2 -39 -1 -48 -26 -9 -24 -6 -37 18 -83 16 -30 38 -60 50 -66 12 -6 30 -18 41 -28 29 -24 91 -39 160 -38 50 1 68 6 110 33 74 47 85 63 114 170 33 122 44 162 51 180 4 11 16 49 25 85 9 36 21 76 25 90 4 14 16 52 25 85 9 33 21 72 27 88 24 62 -33 227 -78 227 -12 0 -29 11 -37 24 -18 26 -52 36 -143 40 -53 3 -69 -1 -111 -25z">
            </path>
            <path id="p9rWltPqL"
                d="M2392 1995 c-45 -57 -46 -75 -8 -159 19 -42 57 -104 83 -137 59 -75 183 -176 232 -187 63 -15 155 -33 196 -39 48 -6 171 29 229 64 l38 25 -4 73 c-2 41 -8 79 -14 85 -7 7 -66 12 -145 14 -121 2 -143 6 -227 35 -106 36 -205 104 -287 195 -27 31 -55 56 -62 56 -6 0 -20 -11 -31 -25z">
            </path>
            <path id="pggOMfaIb"
                d="M120 979 c0 -19 21 -49 35 -49 3 0 16 -9 28 -20 11 -11 38 -23 59 -26 21 -4 38 -10 38 -15 0 -5 18 -9 40 -9 22 0 40 -4 40 -10 0 -5 15 -10 34 -10 19 0 41 -7 50 -15 8 -8 28 -15 45 -15 16 0 33 -4 36 -10 3 -5 21 -10 40 -10 19 0 36 -4 39 -9 3 -4 24 -11 46 -15 22 -3 40 -11 40 -16 0 -6 20 -10 45 -10 25 0 45 -4 45 -10 0 -5 16 -10 35 -10 22 0 38 -6 41 -15 4 -10 20 -15 44 -15 22 0 42 -4 45 -10 3 -5 22 -10 41 -10 19 0 34 -4 34 -9 0 -4 19 -11 42 -14 24 -3 44 -11 46 -16 2 -6 21 -11 43 -11 21 0 39 -4 39 -10 0 -5 13 -10 29 -10 16 0 42 -7 57 -15 16 -8 41 -15 57 -15 15 0 27 -4 27 -10 0 -5 16 -10 35 -10 19 0 35 -4 35 -10 0 -5 15 -10 33 -10 18 0 42 -7 53 -15 10 -8 34 -15 52 -15 17 0 32 -4 32 -10 0 -5 18 -10 39 -10 22 0 43 -5 46 -10 3 -6 14 -10 23 -10 9 0 30 -7 46 -15 15 -8 44 -15 62 -15 19 0 34 -4 34 -10 0 -5 15 -10 34 -10 18 0 39 -7 46 -15 7 -8 27 -15 46 -15 18 0 36 -5 39 -10 3 -6 21 -10 40 -10 19 0 37 -4 40 -10 3 -5 16 -10 28 -10 12 0 35 -7 51 -15 15 -8 41 -15 57 -15 16 0 29 -4 29 -10 0 -5 13 -10 29 -10 16 0 42 -7 57 -15 16 -8 41 -15 57 -15 15 0 27 -4 27 -10 0 -5 15 -10 34 -10 19 0 38 -4 41 -10 3 -6 19 -10 34 -10 15 0 36 -7 47 -15 10 -8 34 -15 52 -15 17 0 32 -4 32 -10 0 -5 18 -10 39 -10 22 0 42 -4 45 -9 4 -5 24 -12 46 -16 22 -4 40 -11 40 -16 0 -5 18 -9 40 -9 22 0 40 -4 40 -10 0 -5 15 -10 34 -10 18 0 39 -7 46 -15 14 -17 130 -22 130 -5 0 5 11 12 25 16 14 3 25 10 25 15 0 5 9 9 21 9 20 0 49 21 49 37 0 4 -39 9 -88 11 -220 8 -422 45 -717 133 -245 72 -637 186 -810 234 -71 20 -191 54 -265 76 -305 91 -514 152 -741 214 -86 24 -209 65 -275 90 -111 44 -223 85 -231 85 -1 0 -3 -9 -3 -21z">
            </path>
        </g>
    </g>
    <g id="l2MyPUnJ2Owbo8lFhTfuj3Z" fill="rgb(82,82,82)" style="transform: none;">
        <g>
            <path id="pNph5zwGt"
                d="M2245 3166 c-27 -12 -149 -79 -270 -148 -121 -69 -239 -135 -262 -147 -55 -27 -63 -44 -53 -108 10 -62 29 -99 67 -134 61 -57 96 -62 162 -21 25 16 78 47 116 69 39 23 125 73 193 113 68 39 130 70 139 68 9 -2 41 -52 72 -113 171 -333 211 -403 233 -409 65 -17 135 5 198 61 27 24 52 53 55 63 4 14 -40 105 -145 301 -84 155 -158 297 -166 315 -8 18 -22 37 -31 42 -24 12 -230 72 -245 71 -7 0 -35 -10 -63 -23z">
            </path>
            <path id="pfpHn5qGo"
                d="M1315 2370 c-88 -51 -98 -68 -154 -261 -28 -97 -51 -186 -51 -196 0 -27 41 -63 72 -63 31 0 52 -22 44 -47 -44 -156 -46 -158 -76 -176 -20 -12 -40 -16 -59 -12 -33 7 -61 -14 -61 -47 0 -29 59 -128 76 -128 8 0 24 -10 35 -21 52 -52 196 -63 264 -21 60 37 89 72 104 122 7 25 17 56 21 70 5 14 16 52 25 85 9 33 21 71 25 85 4 14 16 52 25 85 9 33 20 71 25 85 4 14 13 45 20 70 7 25 19 66 27 92 9 30 12 63 8 90 -8 56 -56 142 -81 146 -10 2 -26 13 -34 23 -23 29 -100 47 -162 38 -7 -1 -20 1 -28 5 -8 3 -38 -8 -65 -24z">
            </path>
            <path id="plGhGntb7"
                d="M2397 2002 c-19 -21 -37 -66 -37 -94 0 -30 60 -145 109 -210 24 -32 81 -86 127 -122 71 -54 92 -65 137 -71 28 -4 70 -11 92 -17 50 -13 137 -11 184 3 85 26 140 58 147 84 8 33 0 133 -12 145 -5 5 -72 11 -149 13 -126 3 -149 7 -228 35 -102 36 -194 99 -277 191 -30 33 -60 61 -66 61 -6 0 -18 -8 -27 -18z">
            </path>
            <path id="p1AdWvLrfG"
                d="M170 921 c0 -12 63 -41 88 -41 11 0 22 -5 24 -11 2 -6 17 -9 33 -7 26 3 21 6 -40 29 -98 38 -105 39 -105 30z">
            </path>
            <path id="p0J4lnX8K"
                d="M2798 147 c23 -5 42 -14 42 -18 0 -5 18 -9 40 -9 22 0 40 -4 40 -10 0 -5 15 -10 34 -10 18 0 39 -7 46 -15 14 -17 130 -22 130 -5 0 5 11 12 25 16 60 15 1 34 -110 34 -33 0 -105 7 -160 15 -114 16 -150 17 -87 2z">
            </path>
        </g>
    </g>
    <g id="l21glXJLI5i6pQszWUgeghG" fill="rgb(90,90,90)" style="transform: none;">
        <g>
            <path id="p11wFR4Oy8"
                d="M2220 3152 c-41 -21 -183 -100 -315 -175 l-240 -135 -2 -54 c-2 -39 3 -65 20 -98 26 -50 97 -110 131 -110 18 0 454 245 481 271 13 13 51 11 62 -3 6 -7 66 -122 134 -256 121 -237 125 -243 162 -254 71 -22 195 39 236 115 12 22 2 43 -127 284 -77 143 -154 287 -170 320 l-30 59 -125 37 c-69 20 -129 37 -134 37 -4 0 -42 -17 -83 -38z">
            </path>
            <path id="p1AlWkOt3n"
                d="M1318 2370 c-59 -32 -93 -64 -107 -98 -5 -15 -31 -100 -57 -190 -58 -199 -55 -214 49 -236 16 -4 27 -13 27 -23 0 -16 -24 -103 -42 -154 -10 -30 -59 -61 -91 -59 -44 4 -55 0 -61 -26 -9 -35 40 -133 74 -146 14 -5 34 -17 45 -27 51 -45 186 -51 251 -11 57 35 88 72 103 121 7 24 17 55 21 69 10 30 37 122 50 170 30 108 64 225 86 298 18 60 24 94 19 122 -9 55 -58 144 -81 148 -10 2 -26 12 -34 22 -22 26 -126 56 -144 41 -9 -7 -22 -8 -37 -3 -18 6 -36 2 -71 -18z">
            </path>
            <path id="pB7ZGSNXs"
                d="M2380 1970 c-27 -53 -26 -69 16 -151 41 -81 100 -160 153 -204 108 -89 116 -94 219 -115 55 -11 121 -20 147 -20 65 0 178 35 216 67 30 25 31 29 27 89 -6 91 -11 94 -137 94 -130 0 -193 11 -287 49 -87 35 -173 97 -239 173 -62 70 -86 74 -115 18z">
            </path>
        </g>
    </g>
    <g id="l6XaRteOwxu8TT60sh65a9I" fill="rgb(99,99,99)" style="transform: none;">
        <g>
            <path id="p6l2cPEAj"
                d="M2275 3178 c-16 -6 -138 -72 -270 -146 -132 -74 -260 -146 -285 -160 -54 -30 -60 -37 -60 -81 0 -59 23 -114 66 -157 71 -71 78 -70 281 47 98 56 206 120 240 141 37 24 72 38 85 36 23 -3 29 -13 212 -368 70 -135 80 -147 124 -155 59 -10 143 26 187 79 40 49 43 67 16 116 -10 19 -79 148 -154 287 -74 138 -138 261 -142 272 -3 11 -23 26 -48 35 -47 17 -213 66 -218 65 -2 0 -17 -5 -34 -11z">
            </path>
            <path id="p7Pk78OLb"
                d="M1430 2391 c-8 -6 -26 -7 -40 -4 -36 7 -117 -36 -151 -79 -18 -22 -43 -93 -79 -216 l-53 -182 28 -30 c16 -17 37 -30 46 -30 55 0 59 -20 26 -128 -26 -85 -56 -112 -123 -112 -36 0 -43 -3 -48 -26 -8 -32 39 -124 71 -140 13 -6 31 -18 41 -27 53 -48 193 -56 257 -15 86 55 91 66 176 373 6 22 15 51 19 65 10 31 37 122 51 175 6 22 18 60 25 86 17 54 11 96 -25 167 -20 40 -33 55 -53 59 -15 3 -30 13 -33 22 -3 9 -24 22 -48 28 -23 7 -49 14 -57 17 -8 3 -22 2 -30 -3z">
            </path>
            <path id="pxLEbMz8f"
                d="M2382 1971 c-12 -21 -22 -46 -22 -56 0 -28 77 -176 118 -227 42 -53 186 -167 217 -173 11 -2 56 -10 100 -19 91 -18 163 -20 197 -6 13 5 42 14 65 20 22 6 54 23 70 38 26 25 29 33 28 89 -1 34 -7 69 -14 76 -8 11 -48 16 -159 19 -152 5 -153 5 -292 65 -53 23 -116 71 -188 146 -37 37 -73 67 -82 67 -9 0 -26 -17 -38 -39z">
            </path>
        </g>
    </g>
    <g id="l5lROehvAAYS7s7WUyTAbGD" fill="rgb(107,107,107)" style="transform: none;">
        <g>
            <path id="pqXYmdRkm"
                d="M2235 3156 c-73 -35 -513 -282 -552 -311 -31 -22 -30 -78 1 -148 18 -41 35 -61 72 -86 32 -21 56 -30 71 -27 20 6 89 44 376 214 125 73 129 75 146 56 10 -10 58 -95 106 -189 160 -310 162 -313 203 -324 57 -16 135 11 188 66 24 25 44 54 44 65 0 11 -72 154 -160 317 -88 164 -160 302 -160 308 0 13 -28 24 -150 59 -52 15 -99 28 -105 30 -5 2 -41 -12 -80 -30z">
            </path>
            <path id="pdBR42hb9"
                d="M1309 2361 c-77 -44 -91 -69 -149 -269 l-53 -183 28 -29 c16 -17 40 -30 59 -32 28 -3 31 -6 30 -38 0 -19 -8 -62 -17 -95 -21 -74 -52 -103 -117 -107 -44 -3 -45 -4 -48 -38 -3 -39 47 -130 71 -130 8 0 22 -9 32 -20 23 -25 107 -47 167 -44 91 4 178 75 202 164 8 30 22 80 31 110 9 30 21 70 26 88 5 17 13 47 18 65 5 17 17 57 26 87 9 30 20 69 25 85 4 17 16 57 26 90 24 81 21 128 -12 197 -21 43 -35 60 -53 65 -15 3 -32 14 -38 24 -15 20 -88 38 -158 37 -35 0 -64 -8 -96 -27z">
            </path>
            <path id="pSNCQR3y6"
                d="M2391 1985 c-36 -46 -35 -75 5 -159 69 -149 228 -298 337 -316 28 -5 72 -13 97 -19 69 -16 119 -13 197 12 106 35 120 47 125 104 6 67 -8 112 -35 117 -12 3 -83 7 -157 9 -124 4 -142 7 -213 36 -93 38 -181 100 -257 182 -30 32 -60 59 -67 59 -6 0 -21 -11 -32 -25z">
            </path>
        </g>
    </g>
    <g id="l5U5X9dUCPFamAyrnoenJK4" fill="rgb(115,115,115)" style="transform: none;">
        <g>
            <path id="pIg4gNGET"
                d="M2235 3156 c-47 -22 -473 -261 -540 -303 -24 -15 -31 -26 -33 -59 -8 -103 103 -230 176 -203 26 10 232 127 391 223 56 33 101 54 111 51 9 -3 43 -56 75 -118 160 -311 198 -383 213 -394 24 -19 98 -15 152 8 49 21 110 84 110 113 0 13 -277 542 -326 622 -9 14 -44 30 -122 52 -132 38 -143 39 -207 8z">
            </path>
            <path id="pMmnkG0Am"
                d="M1309 2360 c-78 -49 -87 -65 -146 -265 l-55 -188 25 -24 c13 -14 40 -28 58 -32 32 -7 34 -9 33 -46 -2 -57 -30 -145 -54 -169 -13 -13 -38 -22 -73 -26 -50 -5 -52 -6 -55 -37 -4 -36 40 -121 67 -130 9 -3 25 -14 36 -23 26 -22 122 -53 137 -44 6 4 27 7 47 6 69 -3 158 70 181 148 22 75 29 101 55 195 14 50 37 128 51 175 13 47 30 103 36 125 6 22 17 58 24 80 15 50 10 84 -24 157 -19 40 -34 59 -51 63 -13 3 -31 14 -40 24 -20 23 -89 40 -157 39 -38 0 -63 -7 -95 -28z">
            </path>
            <path id="pcqHYgZwq"
                d="M2398 1993 c-8 -10 -21 -33 -28 -51 -12 -30 -10 -38 27 -115 52 -107 108 -174 203 -247 67 -51 87 -61 141 -70 35 -6 82 -15 104 -20 80 -19 149 -7 255 43 l45 22 3 71 c4 99 -6 109 -108 101 -101 -8 -205 8 -298 45 -91 36 -165 88 -248 174 -33 35 -65 64 -71 64 -5 0 -17 -8 -25 -17z">
            </path>
        </g>
    </g>
    <g id="l1obUALuFRnmluCvX7MWwlI" fill="rgb(123,123,123)" style="transform: none;">
        <g>
            <path id="po83j8cGq"
                d="M2218 3147 c-98 -52 -531 -298 -545 -309 -18 -14 -16 -65 3 -121 20 -60 93 -127 137 -127 27 0 116 49 488 268 14 9 33 13 41 10 13 -5 152 -262 254 -470 20 -39 29 -48 59 -54 45 -8 100 2 147 29 47 26 92 88 83 115 -4 16 -236 453 -317 602 -12 21 -35 31 -130 58 -64 17 -125 32 -136 32 -11 0 -49 -15 -84 -33z">
            </path>
            <path id="p1EWucfdeA"
                d="M1317 2364 c-80 -42 -93 -65 -152 -265 -36 -124 -51 -188 -45 -199 14 -26 38 -42 73 -49 42 -9 45 -32 16 -131 -25 -88 -39 -102 -114 -110 -47 -5 -50 -7 -53 -35 -4 -39 41 -122 71 -131 12 -3 29 -14 37 -24 19 -23 118 -52 139 -40 9 4 28 6 43 3 17 -3 41 4 70 21 76 44 91 69 132 216 21 74 42 149 47 165 5 17 21 68 34 115 14 47 31 103 37 125 6 22 17 58 23 80 7 22 10 55 6 75 -9 49 -58 140 -76 140 -8 0 -25 11 -36 24 -39 45 -181 56 -252 20z">
            </path>
            <path id="ppGfSxC5C"
                d="M2407 1998 c-9 -7 -24 -30 -32 -52 -16 -38 -16 -39 19 -112 50 -106 114 -184 207 -253 62 -46 91 -61 127 -66 26 -4 61 -11 77 -15 72 -21 127 -23 188 -5 144 40 157 52 157 138 0 88 -5 92 -97 90 -109 -3 -239 15 -284 38 -21 10 -45 19 -53 19 -27 0 -161 98 -223 164 -34 36 -64 66 -66 66 -2 0 -11 -6 -20 -12z">
            </path>
        </g>
    </g>
    <g id="l3OIoOZ0spXQ932V1qpRD8R" fill="rgb(132,132,132)" style="transform: none;">
        <g>
            <path id="pINsGbfCP"
                d="M2267 3168 c-16 -5 -92 -46 -170 -90 -78 -44 -203 -114 -277 -156 -74 -41 -141 -82 -147 -90 -49 -59 57 -242 140 -242 26 0 117 49 400 217 59 36 115 63 125 61 10 -2 43 -54 87 -138 183 -352 198 -378 219 -384 83 -22 193 28 235 108 12 22 11 30 -6 63 -11 21 -84 156 -162 300 -77 145 -141 267 -141 273 0 14 -24 24 -141 59 -116 34 -121 34 -162 19z">
            </path>
            <path id="p1BWaGKkcR"
                d="M1317 2363 c-44 -23 -107 -87 -107 -109 0 -6 -7 -34 -15 -60 -8 -27 -30 -103 -49 -168 l-35 -119 31 -29 c19 -17 41 -28 59 -28 29 0 34 -8 30 -55 -1 -11 -6 -31 -11 -45 -5 -14 -14 -43 -19 -66 -13 -50 -67 -85 -118 -77 -29 5 -33 2 -39 -23 -9 -36 38 -130 70 -140 11 -3 30 -14 41 -24 30 -25 108 -48 135 -38 12 4 32 5 45 2 15 -4 37 3 66 21 64 40 94 76 108 131 7 27 17 60 21 74 4 14 16 52 25 85 9 33 20 71 25 85 4 14 13 43 19 65 13 48 58 208 72 251 16 52 10 97 -21 162 -21 45 -34 62 -49 62 -11 0 -26 9 -34 20 -33 47 -179 60 -250 23z">
            </path>
            <path id="pEq1TfQVa"
                d="M2386 1966 c-22 -47 -20 -64 13 -139 41 -92 104 -169 196 -239 75 -58 85 -63 175 -80 144 -29 278 -14 347 38 31 23 33 29 33 83 0 87 -11 97 -112 94 -227 -7 -415 70 -548 223 -55 63 -81 68 -104 20z">
            </path>
        </g>
    </g>
    <g id="l6V7OmcGGMUJdVMLICtKzoL" fill="rgb(140,140,140)" style="transform: none;">
        <g>
            <path id="poz8zrfri"
                d="M2245 3156 c-28 -13 -150 -79 -270 -148 -121 -69 -239 -135 -262 -147 -28 -14 -45 -30 -49 -47 -7 -27 8 -89 32 -137 18 -34 90 -87 119 -87 12 0 60 22 106 49 186 107 277 160 334 195 64 38 87 44 102 24 6 -7 53 -96 106 -198 174 -334 157 -308 199 -315 79 -14 163 28 213 107 l17 27 -168 313 c-92 172 -169 315 -170 317 -4 4 -236 71 -249 71 -5 0 -33 -11 -60 -24z">
            </path>
            <path id="pABZABMuQ"
                d="M1385 2380 c-62 -8 -115 -39 -148 -88 -30 -44 -121 -355 -113 -386 6 -24 54 -56 84 -56 36 0 36 -16 -2 -148 -19 -69 -66 -108 -115 -95 -26 7 -51 -13 -51 -39 0 -27 52 -118 67 -118 6 0 24 -11 40 -24 60 -50 189 -59 257 -16 73 45 92 74 125 195 22 82 62 222 86 300 51 169 59 202 59 251 1 65 -37 152 -71 160 -13 4 -29 15 -37 25 -12 17 -97 51 -121 47 -5 0 -32 -4 -60 -8z">
            </path>
            <path id="pBBR0I0ED"
                d="M2396 1981 c-33 -37 -31 -81 8 -158 54 -108 109 -175 197 -240 66 -48 92 -60 147 -71 156 -31 231 -27 334 15 61 25 71 43 66 113 -2 33 -9 65 -15 71 -6 6 -68 12 -149 14 -77 2 -152 8 -169 14 -133 44 -227 102 -318 199 -33 34 -65 62 -72 62 -6 0 -20 -8 -29 -19z">
            </path>
        </g>
    </g>
    <g id="l9BStakkmXBhNvrrQ2l0fY" fill="rgb(148,148,148)" style="transform: none;">
        <g>
            <path id="p4cV8AHYy"
                d="M2255 3161 c-22 -10 -107 -56 -190 -103 -163 -93 -186 -106 -290 -163 -101 -55 -115 -70 -111 -116 9 -87 91 -189 151 -189 19 0 453 245 480 271 15 15 51 10 67 -8 8 -10 47 -81 85 -158 171 -340 173 -342 215 -349 44 -7 78 -1 130 25 43 22 88 77 88 107 0 18 -288 569 -322 615 -11 16 -223 88 -253 86 -5 0 -28 -8 -50 -18z">
            </path>
            <path id="pi7nAOokA"
                d="M1437 2384 c-4 -4 -25 -7 -46 -6 -83 4 -159 -66 -191 -174 -11 -38 -24 -82 -29 -99 -5 -16 -19 -68 -32 -114 l-23 -83 32 -29 c18 -16 43 -29 56 -29 25 0 41 -25 32 -51 -3 -8 -14 -46 -26 -86 -17 -61 -26 -75 -56 -93 -24 -15 -43 -20 -60 -16 -29 8 -54 -8 -54 -34 0 -27 49 -109 73 -121 12 -7 31 -19 42 -29 51 -43 187 -49 246 -12 85 55 87 58 155 302 9 30 19 66 24 80 4 14 13 45 20 70 7 25 16 56 20 70 5 14 16 52 25 85 9 33 22 72 27 87 6 15 7 49 3 75 -7 54 -57 143 -79 143 -8 0 -21 9 -28 19 -8 10 -33 24 -56 31 -24 6 -49 13 -56 16 -6 2 -15 1 -19 -2z">
            </path>
            <path id="p3GvVYME6"
                d="M2390 1968 c-28 -46 -25 -68 16 -150 56 -112 106 -169 213 -246 51 -36 80 -49 135 -59 133 -26 195 -27 275 -3 102 30 120 51 117 130 -2 34 -8 66 -13 71 -6 6 -75 11 -154 13 -137 4 -148 6 -230 39 -98 40 -187 102 -261 182 -28 30 -57 55 -65 55 -7 0 -22 -15 -33 -32z">
            </path>
        </g>
    </g>
    <g id="l4cLygjXmEn5cXn87ibSU06" fill="rgb(156,156,156)" style="transform: none;">
        <g>
            <path id="p3pZmdfsy"
                d="M2270 3166 c-20 -8 -83 -40 -140 -73 -58 -33 -182 -104 -277 -157 -95 -53 -175 -101 -178 -106 -13 -21 -6 -79 15 -128 23 -54 88 -112 126 -112 19 0 79 33 392 219 56 34 113 61 127 61 20 0 37 -26 131 -207 59 -115 118 -229 130 -255 13 -25 29 -50 35 -54 24 -15 114 -7 155 14 45 23 94 80 94 110 0 11 -70 150 -155 308 -85 158 -155 291 -155 295 0 16 -34 31 -146 64 -65 19 -119 35 -119 34 0 0 -16 -6 -35 -13z">
            </path>
            <path id="pSjixr6Qe"
                d="M1309 2353 c-71 -40 -85 -66 -141 -263 l-52 -183 32 -28 c18 -16 44 -29 57 -29 33 0 38 -16 25 -71 -6 -24 -16 -63 -22 -87 -13 -55 -70 -98 -117 -87 -26 6 -32 3 -43 -19 -10 -22 -8 -33 14 -74 15 -26 39 -53 54 -61 16 -8 35 -22 44 -31 19 -22 90 -38 157 -35 51 2 91 21 143 67 25 23 45 75 95 253 9 33 20 71 25 85 4 14 13 43 19 65 13 51 59 210 72 252 19 62 -28 194 -73 209 -13 4 -29 15 -36 25 -31 44 -183 51 -253 12z">
            </path>
            <path id="pZMpESib3"
                d="M2396 1978 c-30 -47 -29 -73 7 -149 44 -96 108 -173 203 -244 66 -50 86 -60 153 -73 139 -28 273 -17 347 29 25 15 32 27 36 62 7 61 -1 105 -21 112 -9 2 -80 7 -158 9 -116 3 -150 8 -185 24 -24 11 -61 28 -82 37 -57 23 -120 70 -196 148 -37 37 -72 67 -78 67 -6 0 -18 -10 -26 -22z">
            </path>
        </g>
    </g>
    <g id="l3poQWLCKe9zVe7API4ftG9" fill="rgb(165,165,165)" style="transform: none;">
        <g>
            <path id="p1EtfWhoPd"
                d="M2267 3163 c-9 -2 -66 -32 -125 -65 -59 -33 -161 -91 -227 -128 -264 -148 -240 -131 -243 -177 -5 -65 31 -136 86 -173 25 -16 51 -30 59 -30 12 0 146 76 414 234 58 34 103 54 112 50 9 -3 60 -90 113 -192 53 -103 114 -220 137 -261 l40 -73 67 4 c80 4 134 35 165 91 l19 37 -27 52 c-69 136 -309 578 -313 578 -2 0 -50 14 -107 30 -100 29 -131 33 -170 23z">
            </path>
            <path id="pUrCdH4Fq"
                d="M1319 2360 c-75 -39 -96 -77 -150 -275 -6 -22 -15 -51 -20 -65 -30 -90 -31 -111 -8 -136 12 -13 38 -27 56 -30 42 -8 47 -18 33 -75 -6 -24 -16 -63 -22 -87 -13 -55 -70 -98 -117 -87 -26 6 -32 3 -42 -18 -16 -36 31 -123 78 -142 18 -8 33 -18 33 -24 0 -5 24 -16 53 -24 93 -26 194 -1 253 65 20 22 74 169 74 203 0 8 4 23 9 33 5 9 16 44 25 77 9 33 21 76 26 95 12 43 57 194 71 237 21 67 -27 193 -81 211 -16 6 -30 16 -30 22 0 18 -52 32 -130 35 -58 3 -83 -1 -111 -15z">
            </path>
            <path id="pZPP6scl1"
                d="M2397 1976 c-32 -48 -30 -70 8 -147 54 -106 106 -170 196 -239 72 -55 88 -62 162 -77 149 -30 276 -17 347 35 28 21 30 26 30 92 l0 69 -36 7 c-19 3 -57 4 -82 0 -54 -7 -178 9 -237 31 -22 8 -57 22 -78 29 -54 20 -141 86 -214 160 -34 35 -66 64 -71 64 -5 0 -17 -11 -25 -24z">
            </path>
        </g>
    </g>
    <g id="l3pgWZEpqSvO0Swr4ddiqLr" fill="rgb(173,173,173)" style="transform: none;">
        <g>
            <path id="pVxP8OkZ0"
                d="M2225 3140 c-33 -16 -170 -91 -305 -167 -233 -132 -245 -140 -248 -170 -6 -56 17 -115 62 -160 67 -67 70 -66 249 37 87 50 199 116 249 146 74 45 95 54 112 46 13 -6 54 -73 110 -183 49 -96 109 -212 134 -258 l45 -83 66 4 c48 3 76 10 102 28 35 23 79 79 79 100 0 6 -74 149 -165 318 l-166 308 -112 32 c-62 18 -121 32 -132 32 -11 0 -47 -13 -80 -30z">
            </path>
            <path id="p9ncZHq7q"
                d="M1308 2350 c-52 -32 -86 -72 -94 -109 -4 -14 -26 -93 -50 -176 -50 -174 -48 -186 32 -207 l46 -13 -6 -44 c-6 -43 -18 -88 -37 -139 -11 -28 -67 -63 -99 -61 -42 2 -47 0 -53 -22 -7 -26 48 -129 68 -129 7 0 26 -11 42 -24 15 -12 42 -26 58 -30 29 -7 39 -8 114 -6 37 1 106 37 137 72 18 20 47 103 86 243 6 22 16 58 23 80 7 22 18 60 25 85 7 25 16 56 20 70 5 14 16 52 25 85 9 33 21 72 27 86 5 15 6 44 2 65 -9 54 -51 134 -70 134 -8 0 -25 10 -37 23 -26 28 -92 46 -163 45 -38 0 -63 -7 -96 -28z">
            </path>
            <path id="pDqq291EJ"
                d="M2413 1992 c-7 -4 -19 -25 -28 -46 -16 -38 -16 -39 19 -111 19 -41 53 -99 77 -130 53 -70 188 -172 238 -180 20 -3 64 -13 98 -21 78 -18 132 -18 180 0 21 8 50 17 64 20 14 3 38 15 52 27 25 19 27 27 27 90 0 79 13 72 -135 75 -123 2 -191 14 -275 49 -66 28 -185 109 -218 148 -40 49 -88 86 -99 79z">
            </path>
        </g>
    </g>
    <g id="l4eu47IvwgW6qX8nCBFZb7L" fill="rgb(181,181,181)" style="transform: none;">
        <g>
            <path id="pTrqkw3Ss"
                d="M2218 3136 c-35 -18 -169 -92 -298 -165 -261 -146 -263 -148 -241 -229 15 -57 48 -103 97 -132 29 -19 40 -21 59 -12 28 13 429 247 459 268 27 19 50 18 68 -3 8 -10 70 -126 138 -258 68 -132 128 -243 134 -247 22 -15 107 -8 145 12 41 20 101 85 101 108 0 7 -45 95 -99 195 -173 319 -210 388 -216 407 -5 14 -30 27 -93 46 -48 14 -100 29 -116 35 -47 15 -71 11 -138 -25z">
            </path>
            <path id="pvhZAJhYa"
                d="M1318 2354 c-72 -37 -96 -78 -140 -244 -5 -19 -13 -48 -18 -65 -41 -141 -40 -132 -13 -159 14 -14 40 -28 59 -32 38 -7 41 -20 23 -89 -6 -22 -15 -58 -20 -80 -13 -54 -78 -103 -115 -86 -20 9 -26 7 -39 -12 -14 -22 -13 -28 16 -80 19 -36 37 -57 48 -57 10 0 26 -9 36 -20 24 -26 113 -52 137 -39 9 5 29 7 42 3 17 -4 37 1 63 17 62 38 88 71 107 134 10 33 21 71 26 85 4 14 13 43 19 65 5 22 22 79 36 128 14 48 36 126 50 175 14 48 30 100 35 116 19 58 -27 174 -81 202 -16 8 -29 19 -29 23 0 16 -72 35 -137 36 -45 1 -72 -4 -105 -21z">
            </path>
            <path id="p16YAiDfh1"
                d="M2396 1968 c-9 -12 -16 -36 -16 -53 0 -41 49 -142 104 -211 58 -75 188 -171 241 -179 22 -3 70 -13 107 -21 72 -17 111 -15 198 10 91 26 104 42 108 120 3 64 2 66 -24 77 -16 5 -55 7 -93 4 -133 -13 -311 39 -424 124 -27 20 -74 62 -104 94 -31 31 -62 57 -69 57 -7 0 -20 -10 -28 -22z">
            </path>
        </g>
    </g>
    <g id="l4msRpBC48Ho4pVvMukTYZI" fill="rgb(189,189,189)" style="transform: none;">
        <g>
            <path id="pNQZm2A6A"
                d="M2276 3163 c-10 -3 -120 -62 -245 -132 -124 -70 -253 -143 -286 -161 -33 -19 -63 -39 -67 -44 -14 -20 -8 -70 13 -116 25 -56 44 -77 92 -101 41 -21 48 -19 137 36 19 12 62 37 95 57 33 19 114 67 181 106 67 40 128 72 136 72 24 0 39 -24 146 -230 55 -107 111 -215 124 -240 29 -57 33 -60 88 -60 62 0 128 35 164 87 l29 41 -129 239 c-70 131 -146 272 -168 313 l-41 74 -110 32 c-112 33 -126 35 -159 27z">
            </path>
            <path id="p6PUzCkvr"
                d="M1311 2348 c-50 -29 -88 -78 -101 -130 -5 -18 -16 -58 -25 -88 -60 -201 -62 -216 -36 -244 13 -13 38 -27 56 -30 18 -4 36 -13 38 -21 3 -7 -3 -42 -13 -77 -10 -35 -21 -75 -24 -90 -8 -34 -69 -73 -116 -73 -30 0 -35 -4 -38 -25 -3 -28 50 -120 70 -120 6 0 22 -9 34 -21 21 -20 83 -41 114 -39 8 0 35 2 60 3 25 1 54 9 65 17 64 46 95 77 95 93 0 9 4 25 9 35 5 9 17 46 26 82 9 36 21 73 26 82 5 10 9 27 9 37 0 11 4 30 9 43 5 13 17 50 26 83 10 33 21 71 25 85 4 14 15 52 25 85 9 33 21 70 26 83 17 43 -41 192 -75 192 -8 0 -21 8 -28 18 -18 27 -83 46 -152 47 -46 0 -69 -6 -105 -27z">
            </path>
            <path id="psbl36GNd"
                d="M2396 1968 c-23 -33 -20 -68 13 -140 42 -93 112 -175 204 -240 44 -32 85 -58 91 -59 6 0 34 -4 61 -10 126 -24 189 -27 224 -13 18 8 43 14 55 14 12 0 38 11 59 25 36 25 37 27 37 90 0 35 -5 67 -11 70 -6 4 -70 9 -142 11 -141 3 -168 8 -262 48 -81 34 -158 89 -229 164 -32 34 -65 62 -72 62 -7 0 -20 -10 -28 -22z">
            </path>
        </g>
    </g>
    <g id="l3UiRWO0WAd7NKLk3Xf5fUG" fill="rgb(197,197,197)" style="transform: none;">
        <g>
            <path id="pavDS8spM"
                d="M2255 3151 c-22 -10 -92 -47 -155 -83 -63 -36 -178 -100 -255 -143 -177 -99 -178 -100 -172 -148 9 -67 47 -129 99 -160 l47 -29 218 128 c120 70 230 136 245 146 16 11 40 18 55 16 23 -3 38 -26 135 -213 60 -115 119 -231 131 -257 18 -39 28 -49 55 -54 73 -14 155 21 198 86 l26 38 -168 311 -167 311 -71 21 c-39 11 -91 27 -115 35 -56 18 -57 18 -106 -5z">
            </path>
            <path id="p1BMyH8saB"
                d="M1391 2373 c-46 -4 -101 -34 -139 -76 -14 -15 -36 -69 -57 -143 -19 -66 -39 -132 -44 -149 -23 -73 -23 -100 -1 -120 12 -11 38 -25 59 -31 32 -9 36 -14 34 -40 -1 -16 -9 -49 -17 -74 -7 -25 -16 -57 -20 -71 -8 -36 -76 -80 -118 -77 -27 3 -34 -1 -36 -19 -5 -31 46 -113 76 -124 14 -5 30 -16 36 -24 17 -21 84 -34 153 -30 56 3 68 8 118 47 30 23 55 50 55 60 0 9 4 27 9 40 10 27 33 103 51 168 7 25 16 56 20 70 5 14 16 52 25 85 9 33 21 71 25 85 4 14 16 54 25 90 9 36 22 75 28 88 8 16 7 26 -1 34 -7 7 -12 23 -12 35 0 40 -39 104 -70 114 -16 6 -31 16 -34 24 -4 11 -107 49 -118 43 -1 -1 -23 -3 -47 -5z">
            </path>
            <path id="pKRWqTWI7"
                d="M2395 1960 c-22 -42 -19 -62 21 -142 47 -93 101 -156 192 -225 67 -51 83 -58 166 -74 99 -20 211 -25 221 -9 3 5 20 10 36 10 31 0 75 22 97 49 16 19 16 127 0 137 -7 4 -51 7 -100 6 -105 -2 -221 13 -262 34 -17 9 -48 22 -69 30 -50 18 -124 74 -202 152 -34 34 -67 62 -73 62 -7 0 -18 -13 -27 -30z">
            </path>
        </g>
    </g>
    <g id="l4uL5qWVULHKeT55LHEBvO" fill="rgb(206,206,206)" style="transform: none;">
        <g>
            <path id="pMae4LcYQ"
                d="M2257 3150 c-27 -10 -54 -23 -60 -28 -7 -5 -120 -69 -252 -142 -132 -73 -246 -138 -253 -145 -20 -18 -17 -89 7 -138 23 -47 83 -97 117 -97 11 0 49 17 85 38 35 21 120 71 189 112 69 40 146 86 171 101 49 31 90 37 106 17 6 -7 66 -123 134 -257 134 -264 138 -268 212 -257 81 13 157 76 157 130 0 9 -56 119 -124 244 -68 125 -140 260 -161 300 -21 39 -39 72 -40 72 -1 0 -55 16 -121 35 -65 19 -119 35 -119 35 0 -1 -22 -9 -48 -20z">
            </path>
            <path id="p7SkqmItV"
                d="M1436 2373 c-3 -4 -24 -6 -46 -5 -28 1 -53 -6 -79 -22 -62 -40 -83 -72 -111 -176 -7 -25 -18 -63 -25 -85 -49 -159 -51 -172 -29 -196 10 -11 37 -25 61 -31 50 -12 52 -19 23 -104 -11 -32 -20 -69 -20 -81 0 -34 -82 -86 -120 -78 -25 5 -30 3 -35 -17 -8 -33 38 -113 73 -127 15 -6 39 -21 54 -33 24 -19 39 -22 109 -20 62 1 89 6 113 22 49 31 86 68 86 84 0 8 4 25 9 38 5 13 22 68 37 123 15 55 38 136 51 180 13 44 28 96 33 115 21 75 42 146 51 169 7 16 6 28 -1 35 -5 5 -10 19 -10 31 0 31 -43 105 -65 111 -11 3 -27 14 -35 24 -16 19 -114 53 -124 43z">
            </path>
            <path id="pg0rwqp4k"
                d="M2395 1960 c-21 -41 -19 -58 15 -129 45 -93 104 -165 184 -224 94 -70 91 -69 166 -85 97 -20 188 -26 229 -14 20 6 48 13 63 17 14 3 41 17 58 31 29 25 31 30 28 88 l-3 61 -96 2 c-255 5 -384 57 -553 224 -33 33 -63 59 -67 59 -5 0 -15 -13 -24 -30z">
            </path>
        </g>
    </g>
    <g id="l70X4OBT3VopVDC5GQVEV4N" fill="rgb(214,214,214)" style="transform: none;">
        <g>
            <path id="p1CpEZT6tR"
                d="M2170 3102 c-58 -32 -168 -94 -245 -137 -77 -43 -162 -91 -190 -105 -45 -24 -50 -30 -53 -65 -2 -21 4 -58 13 -82 19 -48 87 -113 119 -113 12 0 108 52 215 115 309 184 297 178 321 165 11 -6 51 -72 90 -148 178 -351 187 -366 223 -374 37 -8 80 -1 119 18 33 17 88 83 88 105 0 10 -16 46 -36 81 -20 34 -61 110 -92 168 -31 58 -84 157 -119 220 -35 63 -63 120 -63 126 0 14 -9 18 -130 55 -52 16 -108 29 -125 29 -18 0 -72 -24 -135 -58z">
            </path>
            <path id="pRK8S6NaI"
                d="M1306 2339 c-25 -15 -52 -39 -61 -53 -16 -23 -61 -169 -110 -353 -7 -27 36 -73 69 -73 48 -1 52 -13 32 -87 -10 -37 -21 -81 -24 -96 -6 -39 -77 -90 -114 -83 -17 3 -31 0 -39 -10 -11 -13 -8 -25 16 -70 16 -30 35 -54 41 -54 7 0 25 -11 41 -24 15 -13 39 -27 53 -31 43 -14 161 -6 189 12 44 27 91 77 91 95 0 9 4 27 9 40 5 13 17 50 26 83 9 33 20 71 25 85 4 14 13 43 19 65 14 54 58 204 86 295 13 41 19 76 14 78 -5 2 -9 14 -9 28 0 39 -42 114 -67 121 -13 3 -28 13 -32 22 -11 21 -88 39 -158 39 -40 0 -63 -7 -97 -29z">
            </path>
            <path id="pSntSjVkE"
                d="M2401 1960 c-11 -19 -21 -41 -21 -48 0 -22 78 -166 117 -214 59 -75 176 -155 243 -168 30 -6 74 -15 96 -21 72 -19 209 2 262 40 39 27 46 49 37 113 l-7 51 -81 -6 c-103 -8 -250 14 -313 48 -26 14 -52 25 -58 25 -19 1 -149 103 -202 160 l-52 54 -21 -34z">
            </path>
        </g>
    </g>
    <g id="lHP33f7bB1SrcKQCx853vA" fill="rgb(222,222,222)" style="transform: none;">
        <g>
            <path id="pUU956JAi"
                d="M2270 3153 c-37 -15 -576 -318 -582 -327 -26 -38 8 -144 61 -189 59 -50 59 -50 302 94 123 73 236 139 250 148 51 29 64 13 202 -263 l129 -256 59 0 c46 0 68 6 98 24 39 25 81 74 81 96 0 6 -60 123 -134 258 -73 136 -146 271 -161 300 -15 29 -31 55 -36 58 -18 11 -184 56 -219 60 -19 2 -42 1 -50 -3z">
            </path>
            <path id="pmcS87tdP"
                d="M1312 2341 c-63 -41 -83 -73 -110 -176 -6 -22 -22 -76 -36 -120 -13 -44 -26 -92 -28 -107 -4 -35 25 -65 75 -79 l39 -10 -7 -47 c-4 -26 -13 -62 -21 -81 -8 -18 -14 -44 -14 -56 0 -33 -91 -91 -119 -76 -17 9 -22 8 -31 -9 -25 -47 78 -154 170 -176 19 -5 61 -7 93 -4 49 4 65 11 112 49 30 24 55 52 55 62 0 10 4 28 9 41 5 13 21 68 36 123 15 55 31 109 35 120 4 11 15 49 25 85 9 36 21 73 26 82 5 10 9 25 9 33 0 19 28 113 41 137 5 11 5 19 -1 23 -6 3 -10 17 -10 30 0 41 -40 106 -72 117 -15 5 -28 16 -28 23 0 18 -91 43 -157 43 -39 0 -61 -7 -91 -27z">
            </path>
            <path id="pX0dzB53x"
                d="M2393 1943 c-15 -37 -15 -39 21 -111 21 -41 56 -98 79 -127 60 -74 173 -154 244 -171 32 -7 77 -18 101 -24 54 -13 139 -13 147 0 3 5 18 10 33 10 15 0 45 11 67 23 39 22 40 23 43 86 2 44 -1 67 -10 73 -7 5 -47 6 -88 3 -199 -16 -406 69 -550 226 -25 27 -51 49 -58 49 -7 0 -20 -17 -29 -37z">
            </path>
        </g>
    </g>
    <g id="l3J9vY2PDBSWRF8w0HjatYs" fill="rgb(230,230,230)" style="transform: none;">
        <g>
            <path id="pFKmvbgkN"
                d="M2245 3139 c-48 -26 -194 -107 -400 -222 -49 -28 -102 -56 -116 -64 -44 -22 -52 -39 -45 -90 8 -58 43 -113 91 -143 46 -28 28 -36 320 139 121 72 230 131 242 131 13 0 29 -10 36 -22 15 -24 220 -421 246 -475 14 -31 18 -33 68 -33 82 0 158 47 178 111 4 12 -43 109 -149 303 -86 157 -156 289 -156 295 0 15 -36 32 -130 59 -122 35 -139 36 -185 11z">
            </path>
            <path id="p1GHf5FSLy"
                d="M1329 2352 c-72 -45 -97 -85 -128 -197 -22 -81 -43 -151 -52 -173 -24 -61 9 -122 66 -122 12 0 28 -7 35 -15 12 -14 9 -29 -26 -128 -8 -20 -14 -45 -14 -55 0 -10 -20 -32 -45 -50 -34 -24 -52 -30 -74 -26 -20 4 -30 1 -34 -10 -8 -21 40 -105 67 -117 11 -5 34 -19 49 -31 42 -34 172 -39 219 -9 83 53 87 60 129 216 6 22 17 58 24 80 7 22 17 58 23 80 6 22 23 78 37 125 14 47 30 103 36 125 6 22 15 53 20 68 16 53 -32 187 -67 187 -7 0 -23 11 -36 24 -27 27 -60 37 -144 40 -40 2 -68 -2 -85 -12z">
            </path>
            <path id="puFsCUGhF"
                d="M2402 1955 c-18 -40 -15 -60 23 -136 46 -93 100 -156 187 -220 63 -46 84 -55 177 -76 59 -13 124 -22 146 -20 59 7 139 32 169 53 22 17 25 26 26 80 l0 62 -32 5 c-18 2 -58 2 -88 0 -85 -8 -206 13 -275 47 -34 17 -65 30 -69 30 -14 0 -122 85 -180 142 -33 32 -63 58 -66 58 -4 0 -12 -11 -18 -25z">
            </path>
        </g>
    </g>
    <g id="l2uN3Gp1KpSLEXT0fPZSAc1" fill="rgb(239,239,239)" style="transform: none;">
        <g>
            <path id="p56ZIDnQ2"
                d="M2274 3150 c-17 -7 -147 -78 -414 -228 -25 -13 -73 -40 -107 -59 -66 -36 -69 -42 -63 -113 3 -40 38 -93 81 -124 49 -34 15 -48 317 131 122 73 233 133 247 133 13 0 30 -6 37 -14 7 -7 69 -127 138 -265 l125 -251 51 0 c28 0 65 7 82 16 29 14 102 89 102 105 0 4 -29 58 -63 120 -35 63 -108 196 -161 296 -54 100 -103 186 -109 191 -12 9 -220 73 -234 71 -5 0 -17 -4 -29 -9z">
            </path>
            <path id="pmoNlB8vZ"
                d="M1425 2361 c-4 -7 -20 -9 -40 -5 -41 7 -92 -20 -129 -69 -23 -31 -116 -325 -116 -366 0 -24 32 -48 83 -62 39 -10 47 -30 28 -67 -6 -9 -18 -48 -27 -85 -16 -62 -22 -71 -61 -99 -32 -22 -51 -28 -69 -24 -36 9 -42 -18 -13 -70 13 -24 26 -44 30 -44 3 0 27 -14 53 -32 41 -27 58 -31 124 -34 81 -4 93 0 158 56 27 23 39 53 74 175 5 17 20 71 35 120 57 195 74 252 85 295 7 25 16 56 21 69 16 40 -30 157 -69 177 -12 6 -28 19 -35 28 -7 9 -28 21 -47 26 -19 5 -45 12 -56 15 -12 4 -25 2 -29 -4z">
            </path>
            <path id="pnr1db7bA"
                d="M2412 1968 c-27 -33 -25 -73 8 -138 49 -96 105 -165 182 -221 81 -59 91 -63 183 -83 88 -19 171 -22 210 -8 17 6 42 14 56 16 14 3 38 15 52 27 24 18 27 28 27 78 l0 58 -153 5 -154 5 -91 42 c-106 47 -191 107 -259 181 -41 45 -50 50 -61 38z">
            </path>
        </g>
    </g>
    <g id="lKNBEhedYKzHaO8vfsSltB" fill="rgb(247,247,247)" style="transform: none;">
        <g>
            <path id="p11Jk23EVn"
                d="M2265 3141 c-22 -10 -154 -82 -293 -160 -139 -77 -257 -141 -262 -141 -25 0 -27 -93 -1 -140 10 -19 37 -50 60 -67 51 -39 19 -53 331 135 192 115 228 133 248 126 23 -8 96 -141 274 -496 17 -36 21 -38 64 -38 59 0 117 31 154 82 l30 41 -19 31 c-10 17 -31 56 -47 86 -15 30 -55 105 -89 165 -34 61 -88 158 -119 217 l-57 108 -72 20 c-40 12 -92 28 -116 36 -25 7 -45 14 -45 14 -1 0 -19 -9 -41 -19z">
            </path>
            <path id="p1FRe3Y2oh"
                d="M1312 2333 c-57 -37 -76 -74 -128 -251 l-47 -163 25 -26 c14 -14 41 -28 59 -32 30 -6 34 -11 33 -37 -2 -27 -39 -183 -46 -189 -27 -22 -93 -55 -112 -55 -14 0 -28 -5 -31 -10 -9 -15 37 -93 62 -106 13 -6 31 -18 40 -26 24 -21 87 -35 143 -32 25 1 51 3 57 3 7 1 30 17 52 36 21 19 44 35 50 35 6 0 11 8 11 17 0 10 6 35 14 58 8 22 19 58 25 80 12 46 48 171 85 295 14 47 32 110 40 140 8 30 17 62 21 71 3 10 2 20 -4 24 -6 3 -11 17 -11 31 0 35 -46 104 -69 104 -11 0 -22 9 -26 19 -7 22 -52 34 -143 36 -51 1 -70 -3 -100 -22z">
            </path>
            <path id="p12f21eAFo"
                d="M2400 1936 c-10 -31 -8 -41 29 -113 48 -96 109 -166 198 -227 137 -93 374 -111 467 -34 33 27 36 33 36 85 l0 56 -76 -5 c-41 -3 -113 -2 -158 2 -142 13 -288 90 -414 217 -29 29 -57 53 -62 53 -4 0 -14 -15 -20 -34z">
            </path>
        </g>
    </g>
    <g id="loJvLkASXrj0cKup0bdvCC" fill="rgb(255,255,255)" style="transform: none;">
        <g>
            <path id="pH6JN095b"
                d="M2249 3127 c-24 -13 -141 -77 -259 -142 -118 -66 -232 -128 -252 -139 -48 -27 -59 -69 -32 -127 18 -40 87 -109 109 -109 7 0 126 68 264 151 224 134 255 150 276 141 17 -8 53 -70 130 -224 160 -321 154 -313 201 -316 48 -3 105 28 147 80 l30 37 -43 83 c-24 46 -87 162 -140 258 -53 96 -107 194 -118 217 -23 44 -39 53 -178 93 -88 25 -82 25 -135 -3z">
            </path>
            <path id="pmFNh4Plm"
                d="M1431 2351 c-8 -5 -29 -7 -47 -4 -23 4 -43 -1 -68 -16 -63 -39 -70 -54 -137 -289 -16 -56 -29 -111 -29 -121 0 -20 56 -61 82 -61 9 0 21 -7 28 -15 11 -13 11 -22 -2 -48 -8 -18 -21 -61 -29 -96 -12 -57 -18 -66 -57 -93 -23 -16 -55 -30 -70 -31 -15 -1 -28 -9 -30 -18 -4 -20 38 -81 66 -95 12 -6 31 -19 43 -30 16 -15 40 -20 105 -23 l84 -3 55 43 c30 24 54 52 55 61 0 9 4 27 9 40 5 13 17 50 26 83 9 33 27 96 41 140 13 44 30 105 38 135 8 30 24 84 36 120 42 124 22 228 -51 265 -16 9 -29 20 -29 25 0 5 -18 14 -41 20 -22 6 -46 13 -52 15 -7 3 -18 1 -26 -4z">
            </path>
            <path id="ptG8mIaes"
                d="M2405 1929 c-9 -42 57 -176 118 -240 63 -66 159 -128 224 -145 93 -24 203 -32 243 -18 19 7 46 15 60 18 14 3 37 17 53 31 22 22 27 34 27 76 l0 51 -87 -7 c-222 -17 -410 55 -564 217 -25 26 -50 48 -56 48 -6 0 -14 -14 -18 -31z">
            </path>
        </g>
    </g>
</svg>